<svg version="1.1" id="Layer_1" xmlns="http://www.w3.org/2000/svg" xmlns:xlink="http://www.w3.org/1999/xlink" x="0px" y="0px"
	 width="100%" viewBox="0 0 1244 884" enable-background="new 0 0 1244 884" xml:space="preserve">
<path fill="#FFFFFF" opacity="1.000000" stroke="none" 
	d="
M1245.000000,145.000000 
	C1245.000000,391.586426 1245.000000,638.172852 1245.000000,885.000000 
	C1061.973267,885.000000 878.946350,885.000000 695.511353,884.656616 
	C700.902100,879.736572 706.065918,874.605164 706.970947,866.840576 
	C708.045288,857.624512 709.466675,848.351318 709.362854,839.118347 
	C709.204407,825.029236 708.073914,810.936646 706.935791,796.879578 
	C706.424011,790.558594 706.286255,784.892822 712.420532,780.929016 
	C714.162659,779.803284 715.365967,777.785034 716.687744,776.076599 
	C730.365845,758.397278 736.416382,737.724487 739.913330,716.123962 
	C744.357849,688.670044 742.395203,661.138306 740.265686,633.648987 
	C739.996460,630.174255 740.928833,629.484680 743.922668,628.892517 
	C758.686584,625.972473 773.411804,622.854675 788.133911,619.727356 
	C793.611816,618.563721 795.081177,616.112366 793.628845,610.740784 
	C791.002258,601.025452 788.293030,591.332520 785.617432,581.630371 
	C783.054260,572.335999 780.489868,563.041809 777.871094,553.548218 
	C791.106140,551.274658 803.640320,549.050903 816.201660,546.992432 
	C822.877991,545.898376 823.283997,545.643494 822.852295,538.718506 
	C822.315002,530.099854 821.648560,521.489136 821.010254,512.877014 
	C820.065125,500.126190 819.040222,487.381012 818.152161,474.626221 
	C817.266357,461.902924 816.507385,449.170776 815.682983,436.289185 
	C817.376282,435.792664 818.773315,435.327271 820.198120,434.973694 
	C837.883728,430.585083 855.593933,426.292877 873.244751,421.769012 
	C876.813171,420.854431 880.144714,419.777618 881.161987,414.865143 
	C887.896240,382.344818 895.058105,349.913239 901.887390,317.412079 
	C902.561890,314.202026 903.859924,313.490387 906.848938,313.481201 
	C924.657593,313.426514 942.465515,313.173187 960.273987,313.021637 
	C969.602661,312.942230 978.937256,312.710968 988.259766,312.937714 
	C1012.203918,313.520050 1036.157227,314.011139 1060.078613,315.140778 
	C1076.159424,315.900177 1092.187500,317.741089 1108.246948,318.996429 
	C1122.810669,320.134827 1137.412231,320.869080 1151.939697,322.346130 
	C1156.812256,322.841522 1159.900146,321.511810 1162.364380,317.614288 
	C1165.818970,312.150726 1169.584351,306.871399 1172.818115,301.282593 
	C1194.320801,264.119843 1212.084839,225.178055 1227.957397,185.325470 
	C1233.355713,171.771133 1239.303345,158.435532 1245.000000,145.000000 
z"/>
<path fill="#FFFFFF" opacity="1.000000" stroke="none" 
	d="
M426.000000,1.000003 
	C698.877625,1.000000 971.755310,1.000000 1245.000000,1.000000 
	C1245.000000,46.023415 1245.000000,91.047821 1244.625244,136.430023 
	C1243.501099,136.516098 1242.768921,136.076065 1241.999756,135.997192 
	C1220.542847,133.796783 1199.125854,130.818604 1177.611206,129.661972 
	C1148.390503,128.091049 1119.093994,127.306313 1089.831177,127.334915 
	C1065.419312,127.358780 1041.013550,129.175842 1016.597229,129.949875 
	C987.387024,130.875885 958.211609,131.484512 929.179565,135.805450 
	C897.693359,140.491608 866.022400,143.934998 834.434570,147.940460 
	C824.713074,149.173172 824.716919,149.203369 823.552856,158.077774 
	C823.113953,158.188446 822.655151,158.359360 822.182678,158.415268 
	C804.716858,160.482162 787.052307,161.509064 769.824402,164.813217 
	C735.388000,171.417801 703.264893,184.982758 672.220947,200.919250 
	C633.607971,220.741272 596.507751,243.133377 562.532471,270.274078 
	C543.592163,285.404388 525.384644,301.452179 507.741455,316.332031 
	C493.892487,309.051056 479.979584,300.646667 465.204407,294.226654 
	C443.611450,284.844269 420.563965,279.921173 397.254761,277.219513 
	C382.947449,275.561157 368.387634,275.359314 353.963379,275.640869 
	C340.287354,275.907806 326.640259,277.657410 312.240936,278.814423 
	C316.042389,273.229645 319.928131,268.448700 322.808990,263.124023 
	C333.808136,242.794647 344.814484,222.456177 355.180237,201.800980 
	C364.225708,183.776596 373.412628,165.713654 380.763397,146.972076 
	C394.373505,112.271446 406.690399,77.063530 419.539917,42.064709 
	C423.765015,30.556585 427.855286,18.993670 427.923767,6.534904 
	C427.933868,4.693517 426.672882,2.845145 426.000000,1.000003 
z"/>
<path fill="#FFFFFF" opacity="1.000000" stroke="none" 
	d="
M1.000004,579.000000 
	C1.000000,386.415466 1.000000,193.830902 1.000000,1.000000 
	C140.691467,1.000000 280.383087,1.000000 420.457855,1.369674 
	C420.049164,1.973541 419.238464,2.157763 418.468231,2.449140 
	C388.289429,13.866419 362.282898,31.709881 339.560028,54.377979 
	C329.088013,64.824738 318.605377,75.384605 309.271637,86.826500 
	C275.078766,128.742310 249.090500,175.362579 231.454880,226.537888 
	C221.136398,256.480225 213.564865,287.043091 210.835541,318.736267 
	C210.113052,327.125977 211.035858,336.057709 205.337341,343.553680 
	C203.165100,346.411133 201.972061,349.995575 200.179733,353.162079 
	C189.608185,371.838837 182.954575,391.665466 180.803314,413.163177 
	C179.438126,426.805603 177.658936,440.594086 174.087631,453.781464 
	C169.485825,470.774078 162.786331,487.191620 157.271347,503.949341 
	C156.072189,507.593079 153.790451,508.456116 150.552567,509.025543 
	C140.788284,510.742767 130.918076,512.124084 121.347328,514.624573 
	C94.274643,521.697449 69.206032,533.392578 45.982952,548.979980 
	C43.221561,550.833435 40.860607,551.096680 37.739910,550.064880 
	C31.505608,548.003601 25.155939,546.251343 18.779060,544.674072 
	C13.844809,543.453491 10.401908,546.142395 11.138537,551.113953 
	C11.777794,555.428284 13.460908,559.664856 15.203892,563.711365 
	C16.355467,566.384827 16.079010,567.610962 13.574324,569.274048 
	C9.171469,572.197632 5.169731,575.725342 1.000004,579.000000 
z"/>
<path fill="#FFFFFF" opacity="1.000000" stroke="none" 
	d="
M692.000000,885.000000 
	C461.767609,885.000000 231.535202,885.000000 1.000000,885.000000 
	C1.000000,791.975342 1.000000,698.950317 1.366587,605.432861 
	C5.702917,607.927429 9.672659,610.914368 13.318393,613.657532 
	C11.943116,619.404236 10.240602,625.282898 9.197322,631.276306 
	C8.390708,635.910095 12.470147,639.473877 17.017036,638.155396 
	C22.848169,636.464600 28.449978,633.981567 34.283340,632.300659 
	C36.294731,631.721130 39.363350,631.679504 40.829067,632.825073 
	C54.394623,643.427246 69.667412,650.765198 85.640793,656.741272 
	C125.678459,671.720886 167.296753,679.100464 209.843460,680.639526 
	C229.399292,681.346985 249.040543,679.582153 268.647552,679.134033 
	C270.956360,679.081238 273.573425,679.793030 275.573151,680.962036 
	C290.801270,689.864746 302.101318,702.973694 312.631531,716.723633 
	C323.073181,730.357910 334.951202,742.287109 350.693726,749.524353 
	C370.524109,758.640747 391.262238,761.183350 412.701813,756.252502 
	C415.910980,755.514465 418.386749,756.101929 420.512817,758.864319 
	C428.581970,769.348572 441.055267,773.587402 451.699860,780.396973 
	C454.530090,782.207520 458.465546,783.658630 461.302032,780.365295 
	C464.294983,776.890259 466.690796,772.646667 465.125885,767.841370 
	C462.846954,760.843384 460.027649,754.021362 456.961090,745.851868 
	C466.736755,745.851868 476.171936,745.177307 485.465729,746.034790 
	C495.466766,746.957642 505.940948,747.776672 515.128174,751.389099 
	C531.333435,757.760925 546.857422,765.945923 562.415894,773.864380 
	C588.794312,787.289551 613.792603,803.936218 644.152100,807.800842 
	C645.347900,807.953064 646.917114,809.344788 647.370056,810.521667 
	C652.697571,824.362976 657.326599,838.496704 663.183716,852.104065 
	C669.162903,865.995178 675.678589,879.936707 692.000000,885.000000 
z"/>
<path fill="#2B2624" opacity="1.000000" stroke="none" 
	d="
M692.375000,885.000000 
	C675.678589,879.936707 669.162903,865.995178 663.183716,852.104065 
	C657.326599,838.496704 652.697571,824.362976 647.370056,810.521667 
	C646.917114,809.344788 645.347900,807.953064 644.152100,807.800842 
	C613.792603,803.936218 588.794312,787.289551 562.415894,773.864380 
	C546.857422,765.945923 531.333435,757.760925 515.128174,751.389099 
	C505.940948,747.776672 495.466766,746.957642 485.465729,746.034790 
	C476.171936,745.177307 466.736755,745.851868 456.961090,745.851868 
	C460.027649,754.021362 462.846954,760.843384 465.125885,767.841370 
	C466.690796,772.646667 464.294983,776.890259 461.302032,780.365295 
	C458.465546,783.658630 454.530090,782.207520 451.699860,780.396973 
	C441.055267,773.587402 428.581970,769.348572 420.512817,758.864319 
	C418.386749,756.101929 415.910980,755.514465 412.701813,756.252502 
	C391.262238,761.183350 370.524109,758.640747 350.693726,749.524353 
	C334.951202,742.287109 323.073181,730.357910 312.631531,716.723633 
	C302.101318,702.973694 290.801270,689.864746 275.573151,680.962036 
	C273.573425,679.793030 270.956360,679.081238 268.647552,679.134033 
	C249.040543,679.582153 229.399292,681.346985 209.843460,680.639526 
	C167.296753,679.100464 125.678459,671.720886 85.640793,656.741272 
	C69.667412,650.765198 54.394623,643.427246 40.829067,632.825073 
	C39.363350,631.679504 36.294731,631.721130 34.283340,632.300659 
	C28.449978,633.981567 22.848169,636.464600 17.017036,638.155396 
	C12.470147,639.473877 8.390708,635.910095 9.197322,631.276306 
	C10.240602,625.282898 11.943116,619.404236 13.318393,613.657532 
	C9.672659,610.914368 5.702917,607.927429 1.366587,604.970215 
	C1.000000,603.933289 1.000000,602.866638 1.338097,601.321777 
	C4.129300,597.457703 6.582405,594.071777 8.862106,590.925171 
	C6.199206,588.579590 3.599605,586.289795 1.000002,584.000000 
	C1.000000,582.611084 1.000000,581.222229 1.000004,579.416626 
	C5.169731,575.725342 9.171469,572.197632 13.574324,569.274048 
	C16.079010,567.610962 16.355467,566.384827 15.203892,563.711365 
	C13.460908,559.664856 11.777794,555.428284 11.138537,551.113953 
	C10.401908,546.142395 13.844809,543.453491 18.779060,544.674072 
	C25.155939,546.251343 31.505608,548.003601 37.739910,550.064880 
	C40.860607,551.096680 43.221561,550.833435 45.982952,548.979980 
	C69.206032,533.392578 94.274643,521.697449 121.347328,514.624573 
	C130.918076,512.124084 140.788284,510.742767 150.552567,509.025543 
	C153.790451,508.456116 156.072189,507.593079 157.271347,503.949341 
	C162.786331,487.191620 169.485825,470.774078 174.087631,453.781464 
	C177.658936,440.594086 179.438126,426.805603 180.803314,413.163177 
	C182.954575,391.665466 189.608185,371.838837 200.179733,353.162079 
	C201.972061,349.995575 203.165100,346.411133 205.337341,343.553680 
	C211.035858,336.057709 210.113052,327.125977 210.835541,318.736267 
	C213.564865,287.043091 221.136398,256.480225 231.454880,226.537888 
	C249.090500,175.362579 275.078766,128.742310 309.271637,86.826500 
	C318.605377,75.384605 329.088013,64.824738 339.560028,54.377979 
	C362.282898,31.709881 388.289429,13.866419 418.468231,2.449140 
	C419.238464,2.157763 420.049164,1.973541 420.920502,1.369674 
	C422.388885,1.000000 423.777802,1.000000 425.583344,1.000003 
	C426.672882,2.845145 427.933868,4.693517 427.923767,6.534904 
	C427.855286,18.993670 423.765015,30.556585 419.539917,42.064709 
	C406.690399,77.063530 394.373505,112.271446 380.763397,146.972076 
	C373.412628,165.713654 364.225708,183.776596 355.180237,201.800980 
	C344.814484,222.456177 333.808136,242.794647 322.808990,263.124023 
	C319.928131,268.448700 316.042389,273.229645 312.240936,278.814423 
	C326.640259,277.657410 340.287354,275.907806 353.963379,275.640869 
	C368.387634,275.359314 382.947449,275.561157 397.254761,277.219513 
	C420.563965,279.921173 443.611450,284.844269 465.204407,294.226654 
	C479.979584,300.646667 493.892487,309.051056 507.741455,316.332031 
	C525.384644,301.452179 543.592163,285.404388 562.532471,270.274078 
	C596.507751,243.133377 633.607971,220.741272 672.220947,200.919250 
	C703.264893,184.982758 735.388000,171.417801 769.824402,164.813217 
	C787.052307,161.509064 804.716858,160.482162 822.182678,158.415268 
	C822.655151,158.359360 823.113953,158.188446 823.552856,158.077774 
	C824.716919,149.203369 824.713074,149.173172 834.434570,147.940460 
	C866.022400,143.934998 897.693359,140.491608 929.179565,135.805450 
	C958.211609,131.484512 987.387024,130.875885 1016.597229,129.949875 
	C1041.013550,129.175842 1065.419312,127.358780 1089.831177,127.334915 
	C1119.093994,127.306313 1148.390503,128.091049 1177.611206,129.661972 
	C1199.125854,130.818604 1220.542847,133.796783 1241.999756,135.997192 
	C1242.768921,136.076065 1243.501099,136.516098 1244.625244,136.893906 
	C1245.000000,139.370560 1245.000000,141.741104 1245.000000,144.555832 
	C1239.303345,158.435532 1233.355713,171.771133 1227.957397,185.325470 
	C1212.084839,225.178055 1194.320801,264.119843 1172.818115,301.282593 
	C1169.584351,306.871399 1165.818970,312.150726 1162.364380,317.614288 
	C1159.900146,321.511810 1156.812256,322.841522 1151.939697,322.346130 
	C1137.412231,320.869080 1122.810669,320.134827 1108.246948,318.996429 
	C1092.187500,317.741089 1076.159424,315.900177 1060.078613,315.140778 
	C1036.157227,314.011139 1012.203918,313.520050 988.259766,312.937714 
	C978.937256,312.710968 969.602661,312.942230 960.273987,313.021637 
	C942.465515,313.173187 924.657593,313.426514 906.848938,313.481201 
	C903.859924,313.490387 902.561890,314.202026 901.887390,317.412079 
	C895.058105,349.913239 887.896240,382.344818 881.161987,414.865143 
	C880.144714,419.777618 876.813171,420.854431 873.244751,421.769012 
	C855.593933,426.292877 837.883728,430.585083 820.198120,434.973694 
	C818.773315,435.327271 817.376282,435.792664 815.682983,436.289185 
	C816.507385,449.170776 817.266357,461.902924 818.152161,474.626221 
	C819.040222,487.381012 820.065125,500.126190 821.010254,512.877014 
	C821.648560,521.489136 822.315002,530.099854 822.852295,538.718506 
	C823.283997,545.643494 822.877991,545.898376 816.201660,546.992432 
	C803.640320,549.050903 791.106140,551.274658 777.871094,553.548218 
	C780.489868,563.041809 783.054260,572.335999 785.617432,581.630371 
	C788.293030,591.332520 791.002258,601.025452 793.628845,610.740784 
	C795.081177,616.112366 793.611816,618.563721 788.133911,619.727356 
	C773.411804,622.854675 758.686584,625.972473 743.922668,628.892517 
	C740.928833,629.484680 739.996460,630.174255 740.265686,633.648987 
	C742.395203,661.138306 744.357849,688.670044 739.913330,716.123962 
	C736.416382,737.724487 730.365845,758.397278 716.687744,776.076599 
	C715.365967,777.785034 714.162659,779.803284 712.420532,780.929016 
	C706.286255,784.892822 706.424011,790.558594 706.935791,796.879578 
	C708.073914,810.936646 709.204407,825.029236 709.362854,839.118347 
	C709.466675,848.351318 708.045288,857.624512 706.970947,866.840576 
	C706.065918,874.605164 700.902100,879.736572 695.051636,884.656616 
	C694.250000,885.000000 693.500000,885.000000 692.375000,885.000000 
M273.103760,290.183594 
	C273.103760,290.183594 273.155304,290.188690 273.925568,290.193451 
	C281.648407,288.252716 289.300415,285.909851 297.122528,284.532990 
	C301.327057,283.792908 304.148712,281.984039 306.309601,278.640961 
	C315.589020,264.284760 325.596344,250.333389 333.915649,235.439774 
	C343.206909,218.806122 350.959442,201.312927 359.802399,183.655319 
	C364.503448,173.556763 369.277374,163.490921 373.839050,153.329788 
	C374.670868,151.476822 375.010956,149.222961 374.944672,147.174652 
	C374.235687,125.260826 368.577728,104.441505 360.071167,84.417374 
	C355.763031,74.276192 350.348877,64.604874 345.277283,54.404392 
	C304.761932,90.935341 276.059845,134.782501 253.618454,182.760895 
	C231.188538,230.714783 216.281540,280.916931 213.221985,335.410767 
	C221.648453,327.092194 227.325699,317.594604 238.214447,313.964874 
	C237.429062,315.697083 235.644119,316.403931 234.365891,317.636353 
	C229.577164,322.253510 223.731857,326.332489 220.497818,331.899963 
	C210.762589,348.659515 200.761810,365.486420 193.420563,383.338165 
	C188.401199,395.543762 187.144287,409.428619 185.108078,422.701202 
	C181.014343,449.385284 176.809586,475.946381 164.995575,500.653137 
	C162.459610,505.956635 161.290512,511.913696 159.214157,518.054138 
	C159.267090,518.504822 159.320038,518.955505 159.372955,519.406189 
	C159.639511,518.990601 159.906052,518.575012 160.766632,517.844421 
	C164.236298,514.832214 167.276367,510.970642 171.252411,508.959564 
	C185.888794,501.556335 203.248138,508.309418 211.820923,524.696960 
	C220.731018,541.729309 221.456467,559.892944 216.805008,578.119995 
	C213.951355,589.302185 203.518188,602.015625 191.574829,599.026306 
	C191.460342,598.997681 191.224731,599.453064 190.537521,600.333679 
	C257.061401,665.811401 333.505280,700.780945 429.619202,679.581665 
	C434.011169,678.795471 438.498260,678.352051 442.778748,677.164062 
	C462.024963,671.822815 480.051880,663.513306 497.906128,654.668396 
	C503.561401,651.866882 504.838043,648.002808 504.701660,642.646118 
	C500.961090,643.573242 497.437927,644.446533 492.996490,645.366333 
	C474.293915,647.399658 458.385315,634.948181 459.123810,612.378235 
	C459.637024,596.693665 466.525940,583.580078 475.587189,571.374695 
	C483.570740,560.620789 492.946106,551.684143 506.425446,548.062561 
	C528.159973,542.223022 547.601379,558.105408 546.022034,580.543884 
	C545.954346,581.506042 546.013367,582.477112 546.013367,584.455322 
	C547.507324,582.420959 548.338318,581.390930 549.056763,580.287598 
	C550.145691,578.615295 551.225464,576.930176 552.189819,575.184570 
	C563.578552,554.567810 567.138672,531.896912 568.872681,508.915405 
	C570.747620,484.064697 568.850586,459.280396 564.645752,434.773163 
	C562.123291,420.070923 558.224487,405.604797 554.968994,390.242828 
	C554.494934,388.746002 554.020813,387.249176 553.540771,385.733429 
	C549.475952,386.376740 546.068176,386.916046 542.660339,387.455353 
	C542.947449,386.159943 543.468140,386.054291 543.958435,385.868317 
	C560.541260,379.579590 577.398926,373.914001 593.607971,366.775604 
	C605.226257,361.658997 615.975952,354.569946 627.656982,348.152924 
	C628.128906,347.835632 628.600830,347.518341 629.673035,347.123474 
	C630.111694,346.744110 630.550415,346.364746 631.639465,345.770935 
	C652.349060,331.262726 673.074036,316.776215 693.730835,302.193207 
	C694.990417,301.303955 695.934814,299.762024 696.647217,298.334808 
	C706.724609,278.144806 711.778076,256.476501 714.535889,234.293823 
	C716.395813,219.333649 718.939026,204.227356 714.235596,188.911377 
	C713.211731,189.228424 711.949951,189.526245 710.758911,190.001297 
	C663.623413,208.802917 620.353455,234.481323 579.840149,264.777557 
	C552.497253,285.224884 525.880249,306.640991 503.287537,332.536194 
	C502.443848,333.503235 500.855103,333.820221 499.613525,334.440155 
	C499.353455,333.961517 499.093384,333.482910 498.833313,333.004303 
	C501.264832,330.394135 503.696320,327.783966 506.551849,324.718628 
	C500.720367,320.744995 495.396393,316.787170 489.763641,313.332947 
	C455.119537,292.088074 416.851044,282.921509 376.782654,281.452972 
	C358.744507,280.791870 340.584351,282.997681 322.499146,284.198090 
	C299.612518,285.717224 277.206909,289.359161 256.759857,300.712097 
	C256.278900,300.979126 255.564041,300.824890 253.555511,300.964966 
	C258.942261,295.120544 265.585876,294.095978 271.619629,291.032532 
	C272.127411,290.744049 272.635162,290.455536 273.103760,290.183594 
M578.049194,413.498383 
	C577.811279,413.507690 577.573303,413.516998 577.335388,413.526306 
	C577.547852,413.691925 577.760254,413.857574 578.219177,414.646240 
	C599.545593,438.344208 615.850037,465.442352 630.551697,493.478668 
	C643.223145,517.643372 654.753052,542.404541 667.033203,566.778259 
	C669.478882,571.632446 673.036987,575.926208 676.082092,580.478455 
	C676.835388,580.269470 677.588745,580.060547 678.342041,579.851624 
	C679.181458,575.054626 681.334534,570.050781 680.617920,565.498840 
	C678.325195,550.936768 676.174622,536.162537 671.767334,522.163452 
	C663.102844,494.642212 650.572937,468.710327 635.025330,444.337921 
	C633.512817,441.966919 631.204834,439.689697 628.727783,438.415192 
	C613.484558,430.572083 598.095642,423.011353 582.725159,415.417511 
	C581.281616,414.704346 579.629395,414.413513 578.049194,413.498383 
M737.406067,518.305176 
	C732.295349,520.077454 727.184631,521.849670 721.693481,523.753845 
	C731.321655,547.862549 740.757812,571.490356 750.399353,595.632507 
	C744.927002,596.519836 740.393799,597.469482 735.811462,597.921997 
	C732.793213,598.220032 731.509094,599.430969 732.066772,602.362671 
	C733.484863,609.817444 734.971069,617.259277 736.413940,624.624268 
	C737.270813,624.762756 737.788757,624.993835 738.236206,624.897461 
	C753.139465,621.688477 768.011963,618.329834 782.950195,615.294495 
	C786.760559,614.520142 787.426270,613.087280 786.418518,609.500183 
	C783.278564,598.322388 780.442200,587.058960 777.518860,575.820740 
	C775.276245,567.199219 773.080078,558.565613 770.765930,549.558411 
	C784.829834,546.977173 798.286743,544.279114 811.833496,542.154175 
	C816.127502,541.480652 817.452026,539.923950 817.122131,535.759583 
	C816.244507,524.680176 815.776611,513.568542 814.916138,502.487579 
	C814.044067,491.255890 812.897156,480.045502 812.010559,467.943268 
	C811.337952,457.819061 810.886353,447.673126 809.894714,437.580292 
	C809.433838,432.889465 811.220825,431.214935 815.536621,430.204742 
	C833.829407,425.923004 852.037598,421.280914 870.307129,416.897766 
	C873.696472,416.084625 875.462952,414.767120 876.257080,410.920959 
	C882.982544,378.349030 890.076843,345.853424 896.912292,313.303772 
	C897.584290,310.103638 898.845154,308.952789 902.138733,308.743958 
	C933.866882,306.731903 965.558594,305.725525 997.370300,307.666840 
	C1026.927002,309.470520 1056.570190,309.813171 1086.160156,311.137421 
	C1101.767700,311.835907 1117.342896,313.256683 1133.217285,314.485779 
	C1133.217285,314.485779 1133.497925,314.343262 1133.902954,314.747925 
	C1134.275024,314.765686 1134.646973,314.783447 1135.897339,314.955963 
	C1141.367920,315.468781 1146.831909,316.203278 1152.312866,316.365692 
	C1154.064453,316.417572 1156.668457,315.456604 1157.510864,314.104584 
	C1165.158325,301.829773 1173.703125,289.918427 1179.713989,276.855560 
	C1199.589233,233.662384 1218.520996,190.035095 1237.793823,146.565125 
	C1238.422974,145.146011 1238.826050,143.626633 1239.526978,141.596542 
	C1101.969727,126.515244 965.839966,133.015564 829.617798,156.098358 
	C829.617798,162.751801 830.053284,169.882278 829.543518,176.944519 
	C827.170776,209.814484 824.536804,242.665588 821.995789,275.523407 
	C819.878418,302.903015 817.679138,330.276794 815.726074,357.668121 
	C815.417480,361.996216 813.864014,363.967651 809.569275,365.040314 
	C790.695129,369.754303 771.912109,374.832947 753.097534,379.785126 
	C747.553650,381.244354 742.014771,382.722473 736.337585,384.227966 
	C743.426514,415.927399 750.357971,446.922882 757.336060,478.663116 
	C759.351929,487.400513 761.198914,496.182037 763.464417,504.854218 
	C764.410889,508.477020 763.303772,510.075653 759.955688,511.103241 
	C752.646240,513.346619 745.401428,515.800964 737.406067,518.305176 
M214.649612,626.446655 
	C208.991791,621.289551 203.197998,616.272766 197.701309,610.949280 
	C180.373810,594.167725 166.697418,574.930786 158.468079,552.054016 
	C155.132797,542.782166 153.703156,533.411133 155.702026,523.623779 
	C156.388947,520.260254 156.610382,516.801636 157.120377,512.789246 
	C114.960602,516.606628 78.421867,533.423279 43.818729,555.805603 
	C45.115398,557.482910 46.040813,558.679932 47.433548,560.481445 
	C36.575024,556.948853 26.573040,553.694885 16.571054,550.440918 
	C16.258177,550.940735 15.945297,551.440613 15.632419,551.940430 
	C18.371220,558.255676 21.110022,564.570923 23.773245,570.711914 
	C17.747288,574.270264 12.052440,577.633118 5.485729,581.510742 
	C10.330091,584.805298 14.367658,587.551147 18.991741,590.695862 
	C16.561039,592.945129 14.411276,594.686462 12.568356,596.707520 
	C10.623345,598.840698 8.970973,601.240601 7.190754,603.523926 
	C9.978787,604.799194 12.660944,606.734436 15.578465,607.202393 
	C20.551092,608.000122 20.783934,610.518250 19.676483,614.495483 
	C18.100300,620.156067 16.818800,625.898682 15.002674,633.263855 
	C22.472069,630.661316 28.630026,628.853088 34.484737,626.338745 
	C37.588478,625.005859 39.461815,625.055054 42.471088,627.014099 
	C52.322147,633.427368 62.604710,639.177856 73.213165,645.704102 
	C96.075325,656.518860 120.165016,663.575500 144.973663,667.887817 
	C158.872574,670.303772 173.032120,671.371216 187.116760,672.529175 
	C204.510803,673.959106 221.936066,675.272522 239.373291,675.809998 
	C248.974960,676.105957 258.628876,674.707336 268.259247,674.072754 
	C268.382019,673.708252 268.504791,673.343811 268.627594,672.979309 
	C267.024109,672.337769 265.420624,671.696289 263.817108,671.054810 
	C264.536530,670.149658 265.255920,669.244568 265.975311,668.339478 
	C269.590637,670.356873 273.447601,672.039917 276.780304,674.448486 
	C293.068634,686.219604 307.210785,700.196777 319.772583,715.915894 
	C331.520447,730.616638 345.935303,741.795959 364.208069,747.680176 
	C386.706909,754.925354 408.867523,751.967041 431.098114,746.548584 
	C440.276367,744.311523 449.510193,742.227295 458.806793,740.566162 
	C478.088257,737.120850 497.211548,739.800232 515.450623,745.521606 
	C529.283691,749.860901 542.227661,757.206238 555.305908,763.737305 
	C572.565979,772.356567 589.308228,782.046387 606.759949,790.238647 
	C623.558777,798.124390 640.981079,804.055237 660.267944,800.100586 
	C671.173096,797.864624 682.280090,796.875183 691.985107,790.553650 
	C720.418335,772.033203 729.838196,743.426758 734.090515,711.162964 
	C734.765869,707.282349 735.895813,703.416687 736.024841,699.518005 
	C736.321411,690.557617 736.036255,681.579834 736.155640,672.611389 
	C736.495850,647.058411 734.020630,621.778870 728.934631,596.749512 
	C728.307190,593.661621 727.394775,590.628296 726.538269,587.591125 
	C725.701050,584.622253 724.766296,581.680969 724.264893,580.020630 
	C721.997498,590.078430 719.586731,600.874878 717.120789,611.658691 
	C716.176147,615.789734 714.054749,620.001160 709.591980,619.523682 
	C704.736938,619.004272 705.350647,613.935120 705.099426,610.180725 
	C704.210571,596.902588 704.471619,583.433228 702.253235,570.383789 
	C698.440979,547.958557 692.353943,525.916565 688.645874,503.478363 
	C686.148132,488.364258 678.794495,476.984802 667.702637,467.377502 
	C658.617188,459.508026 649.366516,451.829346 640.189087,444.066101 
	C639.687134,444.523834 639.185120,444.981567 638.683167,445.439331 
	C641.197327,450.014618 643.645081,454.627899 646.236450,459.159027 
	C662.412231,487.442749 676.249023,516.616333 681.510010,549.198486 
	C683.030762,558.616699 684.492493,567.982056 681.877869,577.359985 
	C681.312744,579.386841 679.733887,582.257812 678.166016,582.590393 
	C676.249451,582.997009 673.702576,581.382263 671.719727,580.166260 
	C670.550232,579.449097 669.793518,577.890198 669.110840,576.575012 
	C664.287598,567.282593 659.478943,557.981812 654.764221,548.634033 
	C639.943054,519.248657 626.870178,488.962189 609.200867,461.048676 
	C597.144958,442.002899 584.447205,423.504120 567.293335,408.551575 
	C566.075439,407.489929 564.595947,406.728455 562.354309,405.241028 
	C562.842163,408.630371 563.076721,410.755737 563.460999,412.853699 
	C567.718994,436.100281 571.811218,459.341827 572.190308,483.097046 
	C572.713013,515.843811 570.661316,548.024536 553.909302,577.997803 
	C553.977173,578.248474 554.045105,578.499207 554.112976,578.749878 
	C554.486328,578.579407 554.859680,578.408936 555.926453,578.086121 
	C563.200989,574.571960 570.171997,570.223511 578.650391,569.826355 
	C577.393250,571.401123 575.860718,572.392395 574.194885,573.042114 
	C551.152039,582.029297 532.805725,596.834045 519.298523,617.533752 
	C507.225616,636.035461 501.906250,656.544006 504.629028,678.334167 
	C509.876587,720.329956 553.811340,744.064819 591.022217,738.515198 
	C618.194885,734.462585 637.278748,718.482361 650.091919,694.801819 
	C663.277893,670.432251 663.299805,645.895996 649.748047,621.511292 
	C646.649231,615.935364 643.793579,610.224365 640.825989,604.575500 
	C641.168640,604.336487 641.511292,604.097473 641.853882,603.858459 
	C642.965454,605.143677 644.309387,606.294006 645.147949,607.737793 
	C648.563354,613.618469 652.126099,619.443054 655.080994,625.555908 
	C662.002686,639.875000 664.078552,654.912537 661.454346,670.699097 
	C659.257080,683.917053 653.693970,695.660400 646.279968,707.241577 
	C645.566284,708.163208 644.874207,709.102417 644.135864,710.003845 
	C626.570557,731.450317 604.483337,743.691711 576.210388,742.828552 
	C563.510254,742.440918 551.890808,737.939087 540.503296,732.560913 
	C514.250427,720.161926 498.122467,690.893311 501.964111,662.070374 
	C502.289581,659.628601 502.636108,657.189636 502.982239,654.681458 
	C502.355591,654.724304 501.992950,654.654480 501.727295,654.783875 
	C500.681793,655.293091 499.667023,655.865356 498.640381,656.413330 
	C478.198242,667.324036 457.202972,676.726990 434.623566,682.567749 
	C388.345825,694.538818 342.964630,691.488281 298.214752,675.538086 
	C267.457642,664.575378 240.128510,647.670044 214.649612,626.446655 
M728.431946,278.922302 
	C717.336426,288.695831 706.685486,299.036774 695.065002,308.140228 
	C654.676025,339.780792 612.174194,367.980896 563.646973,385.945251 
	C562.579224,386.340485 561.190552,387.245178 560.923401,388.187683 
	C559.792969,392.175446 563.440735,399.333771 567.317444,401.245728 
	C587.493042,411.196503 607.703369,421.077606 627.829163,431.128082 
	C632.246216,433.333923 636.524719,435.901855 640.600586,438.692230 
	C662.422302,453.631622 681.960266,471.070862 697.090698,492.902924 
	C703.643616,502.358093 709.038147,512.616028 714.214783,521.266052 
	C716.373291,519.724304 718.701477,517.148315 721.573242,516.173279 
	C732.195007,512.566956 742.932617,509.252380 753.766113,506.347900 
	C757.316162,505.396149 757.485107,503.708282 756.767517,501.043610 
	C755.568909,496.592499 753.999817,492.227509 753.029907,487.730652 
	C745.784119,454.136566 738.621460,420.524414 731.497803,386.904144 
	C730.020508,379.932037 730.734680,378.984650 737.507446,377.167236 
	C761.567749,370.710785 785.623962,364.238892 810.012451,357.683929 
	C814.186707,296.882812 818.361328,236.075775 822.536011,175.268753 
	C821.053345,175.617050 820.714294,176.325180 820.246521,176.934555 
	C807.330322,193.763474 795.412659,211.499725 781.208191,227.161743 
	C764.841492,245.207916 746.453125,261.420532 728.431946,278.922302 
M500.043091,553.373840 
	C480.103302,564.791260 468.168457,582.173706 463.102478,604.244263 
	C461.876434,609.585815 462.172333,615.505737 462.891937,621.012878 
	C464.063477,629.978149 469.175751,636.568298 477.373627,640.618958 
	C486.660400,645.207581 495.599243,641.116699 504.603302,639.406433 
	C505.383698,639.258179 506.088318,637.718201 506.485443,636.692078 
	C513.589966,618.334534 524.712280,602.830383 539.485291,589.878235 
	C540.447632,589.034424 541.588013,587.929810 541.814819,586.782349 
	C544.268860,574.366333 541.198303,560.682983 529.483948,553.460388 
	C520.208557,547.741577 510.384308,548.981201 500.043091,553.373840 
M213.770569,536.924683 
	C211.161743,528.725464 207.393448,521.261475 200.795792,515.433105 
	C192.443481,508.054565 180.661179,506.732300 171.635010,511.829681 
	C163.533325,516.404968 156.353104,531.651489 158.655441,540.446838 
	C163.290848,558.154907 171.529434,573.791748 181.706497,588.655518 
	C187.538040,597.172546 199.653870,598.275085 206.206192,590.230164 
	C209.983810,585.591980 213.333115,579.894653 214.705215,574.155212 
	C217.581192,562.125122 217.656799,549.790161 213.770569,536.924683 
M703.835327,829.498291 
	C702.697693,816.090332 701.560120,802.682373 700.422485,789.274414 
	C699.927979,789.131531 699.433472,788.988708 698.938965,788.845886 
	C685.650269,801.370605 668.245789,801.202271 652.041382,804.241089 
	C651.995544,805.003723 651.869324,805.370056 651.971130,805.655029 
	C659.678467,827.226990 666.242249,849.306030 678.918213,868.726074 
	C681.040588,871.977539 684.228271,874.533752 686.923706,877.411194 
	C684.619385,864.173523 676.917908,852.817322 678.573853,839.151184 
	C679.897705,840.540405 680.563965,842.140625 681.043762,843.794922 
	C683.680359,852.886292 686.155090,862.026794 688.953613,871.067383 
	C689.725342,873.560364 691.416138,875.768738 692.685181,878.107727 
	C693.308472,877.934814 693.931824,877.761902 694.555115,877.588928 
	C694.555115,875.158508 695.185608,872.514954 694.448364,870.333618 
	C690.848267,859.682068 689.094482,848.760437 688.770142,837.569946 
	C688.740417,836.541443 688.937683,835.506409 689.029480,834.474365 
	C689.586975,834.406250 690.144409,834.338074 690.701904,834.269897 
	C692.876465,846.708923 695.050964,859.147949 697.225525,871.586975 
	C698.142517,871.541504 699.059509,871.496033 699.976501,871.450562 
	C701.262634,857.778748 702.548828,844.106934 703.835327,829.498291 
M718.178833,600.561096 
	C719.829590,587.289429 723.385864,574.083618 718.984497,560.657166 
	C713.925476,545.224304 711.700745,528.828857 703.580505,514.444153 
	C699.325317,506.906281 694.656128,499.602264 690.173889,492.192627 
	C689.732178,492.417297 689.290466,492.641937 688.848755,492.866577 
	C690.756836,500.911804 692.615173,508.969208 694.582703,516.999878 
	C699.721252,537.973389 704.890015,558.937561 706.171082,580.613647 
	C706.768738,590.726257 707.300049,600.844666 708.092834,610.942261 
	C708.257324,613.037292 709.445007,615.052002 710.161133,617.103699 
	C710.944702,617.102661 711.728271,617.101624 712.511780,617.100586 
	C714.366150,611.866882 716.220459,606.633179 718.178833,600.561096 
M448.269928,744.859863 
	C439.732788,747.100403 431.195679,749.341003 421.684540,751.837219 
	C425.585388,756.094788 428.608643,759.394531 431.631927,762.694275 
	C432.008942,762.345093 432.385956,761.995850 432.762970,761.646606 
	C431.735962,759.603210 430.708984,757.559753 429.681976,755.516296 
	C430.118103,755.198853 430.554199,754.881409 430.990326,754.563965 
	C432.215607,755.519531 433.529968,756.381348 434.650970,757.446655 
	C439.829254,762.367615 444.805573,767.514771 450.177368,772.211304 
	C452.074951,773.870422 454.891357,774.478699 457.288239,775.566711 
	C457.574036,774.999695 457.859802,774.432678 458.145569,773.865662 
	C454.394196,770.741211 450.435791,767.831299 446.932037,764.450195 
	C438.052795,755.881592 438.134521,755.796936 438.982422,752.586914 
	C445.933807,758.416992 450.511078,766.819885 460.384155,770.494019 
	C457.850769,760.683716 453.844574,752.646545 448.269928,744.859863 
M721.792969,539.739075 
	C720.626953,537.135193 719.460876,534.531372 718.294861,531.927551 
	C718.195862,532.039795 718.096924,532.152039 717.997986,532.264282 
	C723.191772,551.870422 728.385498,571.476562 733.633972,591.289246 
	C736.251465,590.955688 738.623901,590.653381 741.573120,590.277527 
	C734.887146,573.240173 728.458740,556.859131 721.792969,539.739075 
M880.444275,144.907867 
	C872.970947,146.002014 865.497559,147.096176 858.024231,148.190323 
	C858.073975,148.528717 858.123718,148.867126 858.173401,149.205521 
	C879.518127,146.394012 900.862854,143.582489 922.207581,140.770966 
	C922.159912,140.379196 922.112183,139.987411 922.064453,139.595642 
	C908.489807,141.367645 894.915222,143.139633 880.444275,144.907867 
z"/>
<path fill="#FEFEFE" opacity="1.000000" stroke="none" 
	d="
M1.000002,584.467590 
	C3.599605,586.289795 6.199206,588.579590 8.862106,590.925171 
	C6.582405,594.071777 4.129300,597.457703 1.338097,600.921814 
	C1.000000,595.645081 1.000000,590.290100 1.000002,584.467590 
z"/>
<path fill="#FED23C" opacity="1.000000" stroke="none" 
	d="
M270.999695,291.007050 
	C265.585876,294.095978 258.942261,295.120544 253.555511,300.964966 
	C255.564041,300.824890 256.278900,300.979126 256.759857,300.712097 
	C277.206909,289.359161 299.612518,285.717224 322.499146,284.198090 
	C340.584351,282.997681 358.744507,280.791870 376.782654,281.452972 
	C416.851044,282.921509 455.119537,292.088074 489.763641,313.332947 
	C495.396393,316.787170 500.720367,320.744995 506.551849,324.718628 
	C503.696320,327.783966 501.264832,330.394135 498.833313,333.004303 
	C499.093384,333.482910 499.353455,333.961517 499.613525,334.440155 
	C500.855103,333.820221 502.443848,333.503235 503.287537,332.536194 
	C525.880249,306.640991 552.497253,285.224884 579.840149,264.777557 
	C620.353455,234.481323 663.623413,208.802917 710.758911,190.001297 
	C711.949951,189.526245 713.211731,189.228424 714.235596,188.911377 
	C718.939026,204.227356 716.395813,219.333649 714.535889,234.293823 
	C711.778076,256.476501 706.724609,278.144806 696.647217,298.334808 
	C695.934814,299.762024 694.990417,301.303955 693.730835,302.193207 
	C673.074036,316.776215 652.349060,331.262726 630.996582,345.883118 
	C629.926697,346.397217 629.499695,346.799133 629.072693,347.201050 
	C628.600830,347.518341 628.128906,347.835632 627.227112,347.931274 
	C625.079712,348.023621 623.311584,348.171417 621.652527,348.677094 
	C604.364563,353.946503 587.224121,359.758728 569.776917,364.427246 
	C556.387573,368.009949 542.592346,370.058167 529.049194,373.106812 
	C527.363831,373.486176 524.784485,375.937683 524.901062,377.221893 
	C525.378479,382.481476 526.457214,387.737823 527.848572,392.850006 
	C529.549744,399.100433 535.021667,400.878906 540.517456,401.558777 
	C545.342651,402.155640 548.969910,399.253693 551.769104,395.454620 
	C552.845398,393.993835 553.886841,392.507324 554.944214,391.032562 
	C558.224487,405.604797 562.123291,420.070923 564.645752,434.773163 
	C568.850586,459.280396 570.747620,484.064697 568.872681,508.915405 
	C567.138672,531.896912 563.578552,554.567810 552.189819,575.184570 
	C551.225464,576.930176 550.145691,578.615295 549.056763,580.287598 
	C548.338318,581.390930 547.507324,582.420959 546.013367,584.455322 
	C546.013367,582.477112 545.954346,581.506042 546.022034,580.543884 
	C547.601379,558.105408 528.159973,542.223022 506.425446,548.062561 
	C492.946106,551.684143 483.570740,560.620789 475.587189,571.374695 
	C466.525940,583.580078 459.637024,596.693665 459.123810,612.378235 
	C458.385315,634.948181 474.293915,647.399658 493.407562,645.664917 
	C493.093414,646.831055 492.511139,647.897522 491.621704,648.536316 
	C476.492065,659.401917 459.984283,667.619812 442.522339,674.004395 
	C437.935852,675.681335 433.406555,677.514832 428.851013,679.276428 
	C333.505280,700.780945 257.061401,665.811401 190.537521,600.333679 
	C191.224731,599.453064 191.460342,598.997681 191.574829,599.026306 
	C203.518188,602.015625 213.951355,589.302185 216.805008,578.119995 
	C221.456467,559.892944 220.731018,541.729309 211.820923,524.696960 
	C203.248138,508.309418 185.888794,501.556335 171.252411,508.959564 
	C167.276367,510.970642 164.236298,514.832214 160.302917,517.850464 
	C159.839203,517.856445 159.491760,517.569702 159.491760,517.569702 
	C161.290512,511.913696 162.459610,505.956635 164.995575,500.653137 
	C176.809586,475.946381 181.014343,449.385284 185.108078,422.701202 
	C187.144287,409.428619 188.401199,395.543762 193.420563,383.338165 
	C200.761810,365.486420 210.762589,348.659515 220.497818,331.899963 
	C223.731857,326.332489 229.577164,322.253510 234.365891,317.636353 
	C235.644119,316.403931 237.429062,315.697083 238.214447,313.964874 
	C227.325699,317.594604 221.648453,327.092194 213.221985,335.410767 
	C216.281540,280.916931 231.188538,230.714783 253.618454,182.760895 
	C276.059845,134.782501 304.761932,90.935341 345.277283,54.404392 
	C350.348877,64.604874 355.763031,74.276192 360.071167,84.417374 
	C368.577728,104.441505 374.235687,125.260826 374.944672,147.174652 
	C375.010956,149.222961 374.670868,151.476822 373.839050,153.329788 
	C369.277374,163.490921 364.503448,173.556763 359.223267,183.875549 
	C355.308624,188.351898 351.988617,192.620255 348.634918,196.861984 
	C336.195709,212.595016 323.954651,228.490875 311.238037,243.996628 
	C299.464020,258.353058 287.161163,272.275360 275.147278,286.436401 
	C274.252350,287.491272 273.808716,288.928955 273.155304,290.188690 
	C273.155304,290.188690 273.103760,290.183594 272.810181,290.108459 
	C272.010986,290.357880 271.505341,290.682465 270.999695,291.007050 
M487.830933,515.369263 
	C498.413635,508.815399 502.520905,498.764832 501.885193,486.950836 
	C501.038422,471.215485 493.592560,459.584015 477.929169,453.945648 
	C481.178711,451.878601 483.875763,450.162964 486.572845,448.447327 
	C486.095917,447.657684 485.618988,446.868011 485.142029,446.078369 
	C467.616058,455.546051 450.090088,465.013763 433.787201,473.820740 
	C434.264893,477.302704 434.803802,479.396759 434.778137,481.483856 
	C434.741760,484.442993 433.837067,487.435699 434.086212,490.347107 
	C436.113861,514.041016 464.790680,532.147766 487.830933,515.369263 
M237.762955,494.153320 
	C255.434509,497.067596 272.537750,479.694824 273.033630,462.605621 
	C273.122345,459.548706 272.340881,455.796417 270.536102,453.471466 
	C262.984955,443.744202 254.904388,434.427094 246.977264,424.993744 
	C246.096832,423.946014 244.957428,423.115845 243.938126,422.184753 
	C243.526093,422.457764 243.114044,422.730743 242.702011,423.003754 
	C243.393631,424.677948 244.085266,426.352112 244.894150,428.310150 
	C243.541672,428.592743 242.280701,428.861969 241.017319,429.119354 
	C228.908722,431.585968 219.466278,437.429962 214.426422,449.330078 
	C207.594040,465.462738 213.590683,490.967285 237.762955,494.153320 
M384.014343,654.502441 
	C389.524109,643.882446 392.820801,632.523621 393.885590,620.698364 
	C397.282898,582.968445 381.383850,554.215637 351.548584,532.424072 
	C339.313049,523.487244 328.768036,524.059692 316.751007,533.287415 
	C311.201904,537.548523 305.529846,541.664612 300.173187,546.156189 
	C296.457794,549.271484 293.185760,552.915466 289.715607,556.323303 
	C290.014343,556.712036 290.313049,557.100830 290.611786,557.489624 
	C291.569855,557.110779 292.589478,556.837769 293.470215,556.325806 
	C294.525116,555.712708 295.461456,554.895569 297.033691,553.735474 
	C294.906830,573.729370 292.886932,592.865295 295.932709,612.221252 
	C299.761993,636.556396 309.170746,657.841125 327.762787,674.417603 
	C338.417725,683.917480 348.656158,684.856995 361.326782,678.103455 
	C371.192596,672.844849 378.219543,664.744934 384.014343,654.502441 
M329.083771,505.645599 
	C331.209167,507.159851 333.273926,509.809937 335.473846,509.927338 
	C338.943085,510.112457 342.551697,507.954681 342.720306,504.111816 
	C342.762848,503.142670 337.847198,501.147491 335.192444,501.116180 
	C332.939728,501.089600 328.817169,500.350372 329.083771,505.645599 
z"/>
<path fill="#FFD33C" opacity="1.000000" stroke="none" 
	d="
M1133.497925,314.343262 
	C1133.497925,314.343262 1133.217285,314.485779 1132.998291,314.055634 
	C1127.026978,310.355347 1121.486816,306.616608 1115.484863,303.897583 
	C1091.723999,293.133514 1068.128174,281.905212 1043.887451,272.326355 
	C1014.400330,260.674316 984.354065,250.429581 954.495117,239.728226 
	C927.288025,229.977249 899.999695,220.453354 872.768921,210.768188 
	C868.460571,209.235840 864.267212,207.380386 859.000061,205.264297 
	C859.000061,207.979431 858.943542,209.567413 859.008911,211.150360 
	C859.645813,226.569901 860.366150,241.986267 860.938904,257.408112 
	C861.672363,277.157806 862.358093,296.909760 862.938782,316.664459 
	C863.397888,332.283569 863.667114,347.908264 864.022156,363.530457 
	C864.044800,364.528900 864.066650,365.527710 864.113708,366.525177 
	C864.715698,379.278534 865.331116,392.031311 865.900696,404.786133 
	C865.927551,405.387543 865.558533,406.006653 865.089966,407.556915 
	C824.560913,402.686523 784.045349,397.817810 742.900635,392.873444 
	C743.678894,395.320770 744.104797,396.737457 744.578430,398.138000 
	C751.923584,419.859192 759.299133,441.570221 766.587341,463.310486 
	C767.313232,465.475800 767.516113,467.816467 767.652344,469.930206 
	C765.944580,467.898468 764.546082,466.012268 762.946777,463.855255 
	C760.888428,468.971954 759.088989,473.445160 757.289551,477.918335 
	C750.357971,446.922882 743.426514,415.927399 736.337585,384.227966 
	C742.014771,382.722473 747.553650,381.244354 753.097534,379.785126 
	C771.912109,374.832947 790.695129,369.754303 809.569275,365.040314 
	C813.864014,363.967651 815.417480,361.996216 815.726074,357.668121 
	C817.679138,330.276794 819.878418,302.903015 821.995789,275.523407 
	C824.536804,242.665588 827.170776,209.814484 829.543518,176.944519 
	C830.053284,169.882278 829.617798,162.751801 829.617798,156.098358 
	C965.839966,133.015564 1101.969727,126.515244 1239.526978,141.596542 
	C1238.826050,143.626633 1238.422974,145.146011 1237.793823,146.565125 
	C1218.520996,190.035095 1199.589233,233.662384 1179.713989,276.855560 
	C1173.703125,289.918427 1165.158325,301.829773 1157.510864,314.104584 
	C1156.668457,315.456604 1154.064453,316.417572 1152.312866,316.365692 
	C1146.831909,316.203278 1141.367920,315.468781 1135.253662,314.676697 
	C1134.239258,314.379395 1133.868652,314.361328 1133.497925,314.343262 
z"/>
<path fill="#FED23C" opacity="1.000000" stroke="none" 
	d="
M554.235901,577.513550 
	C570.661316,548.024536 572.713013,515.843811 572.190308,483.097046 
	C571.811218,459.341827 567.718994,436.100281 563.460999,412.853699 
	C563.076721,410.755737 562.842163,408.630371 562.354309,405.241028 
	C564.595947,406.728455 566.075439,407.489929 567.293335,408.551575 
	C584.447205,423.504120 597.144958,442.002899 609.200867,461.048676 
	C626.870178,488.962189 639.943054,519.248657 654.764221,548.634033 
	C659.478943,557.981812 664.287598,567.282593 669.110840,576.575012 
	C669.793518,577.890198 670.550232,579.449097 671.719727,580.166260 
	C673.702576,581.382263 676.249451,582.997009 678.166016,582.590393 
	C679.733887,582.257812 681.312744,579.386841 681.877869,577.359985 
	C684.492493,567.982056 683.030762,558.616699 681.510010,549.198486 
	C676.249023,516.616333 662.412231,487.442749 646.236450,459.159027 
	C643.645081,454.627899 641.197327,450.014618 638.683167,445.439331 
	C639.185120,444.981567 639.687134,444.523834 640.189087,444.066101 
	C649.366516,451.829346 658.617188,459.508026 667.702637,467.377502 
	C678.794495,476.984802 686.148132,488.364258 688.645874,503.478363 
	C692.353943,525.916565 698.440979,547.958557 702.253235,570.383789 
	C704.471619,583.433228 704.210571,596.902588 705.099426,610.180725 
	C705.350647,613.935120 704.736938,619.004272 709.591980,619.523682 
	C714.054749,620.001160 716.176147,615.789734 717.120789,611.658691 
	C719.586731,600.874878 721.997498,590.078430 724.264893,580.020630 
	C724.766296,581.680969 725.701050,584.622253 726.538269,587.591125 
	C727.394775,590.628296 728.307190,593.661621 728.934631,596.749512 
	C734.020630,621.778870 736.495850,647.058411 736.155640,672.611389 
	C736.036255,681.579834 736.321411,690.557617 736.024841,699.518005 
	C735.895813,703.416687 734.765869,707.282349 733.784180,711.786987 
	C727.827759,728.471191 718.755371,742.413330 706.926941,754.541626 
	C697.976135,763.719299 691.391235,763.146057 683.567444,752.924866 
	C674.106262,740.564636 664.732849,728.136353 655.173096,715.852966 
	C652.694153,712.667725 649.661194,709.913574 646.882751,706.961365 
	C653.693970,695.660400 659.257080,683.917053 661.454346,670.699097 
	C664.078552,654.912537 662.002686,639.875000 655.080994,625.555908 
	C652.126099,619.443054 648.563354,613.618469 645.147949,607.737793 
	C644.309387,606.294006 642.965454,605.143677 641.853882,603.858459 
	C641.511292,604.097473 641.168640,604.336487 640.825989,604.575500 
	C643.793579,610.224365 646.649231,615.935364 649.748047,621.511292 
	C663.299805,645.895996 663.277893,670.432251 650.091919,694.801819 
	C637.278748,718.482361 618.194885,734.462585 591.022217,738.515198 
	C553.811340,744.064819 509.876587,720.329956 504.629028,678.334167 
	C501.906250,656.544006 507.225616,636.035461 519.298523,617.533752 
	C532.805725,596.834045 551.152039,582.029297 574.194885,573.042114 
	C575.860718,572.392395 577.393250,571.401123 578.650391,569.826355 
	C570.171997,570.223511 563.200989,574.571960 555.343628,577.962891 
	C554.585938,577.731018 554.410950,577.622253 554.235901,577.513550 
M567.781250,692.524841 
	C567.794678,691.272766 568.338013,689.577148 567.727234,688.847351 
	C565.410522,686.079102 562.894287,683.416443 560.132690,681.094849 
	C554.732849,676.555298 548.261414,674.788574 541.062134,675.035889 
	C543.430664,676.244568 545.799255,677.453247 548.028076,679.438660 
	C550.258911,683.803589 552.293152,688.283569 554.763977,692.508118 
	C559.083923,699.894348 562.498413,699.807312 567.781250,692.524841 
M623.330811,698.094299 
	C624.250671,698.647888 625.170532,699.201477 626.568665,700.042969 
	C622.858398,702.752258 619.656616,705.088501 616.456665,707.427185 
	C608.884277,712.961487 608.884583,712.961914 609.975159,715.634155 
	C616.864929,710.586365 623.755066,705.538452 630.935181,700.277954 
	C627.549622,694.446899 620.240295,694.712463 615.098511,691.029663 
	C616.949036,686.723328 618.540039,682.358704 620.661499,678.269226 
	C622.815308,674.117371 621.596863,672.256287 617.273560,671.516663 
	C611.244568,670.485291 605.242004,669.300049 598.728455,668.087708 
	C598.728455,663.239563 598.828796,658.594421 598.696411,653.955994 
	C598.592224,650.305237 596.610413,648.786011 593.104004,650.130249 
	C588.067688,652.061218 583.112366,654.203247 577.820740,656.379272 
	C577.352295,651.358643 577.000122,646.084412 576.335999,640.849609 
	C575.523987,634.448975 574.826538,634.115173 568.688843,636.398865 
	C567.603821,636.802551 566.354492,637.119324 565.551941,637.871826 
	C558.907715,644.102234 552.313660,650.388306 545.832458,656.787109 
	C545.269287,657.343079 545.623596,658.828430 545.551758,659.882080 
	C554.414978,651.847778 560.486816,641.385315 573.220032,638.147095 
	C574.051819,645.955627 574.850708,653.454773 575.675537,661.197571 
	C582.285217,657.928101 588.267334,654.969055 594.249512,652.009949 
	C594.817383,652.313049 595.385315,652.616089 595.953186,652.919189 
	C595.953186,657.314880 596.084778,661.715881 595.909546,666.104614 
	C595.780762,669.329224 596.695679,670.765015 600.260803,671.197754 
	C606.608032,671.968140 612.861572,673.510498 620.124817,674.918091 
	C617.002136,680.918457 614.217041,686.270203 611.248718,691.974060 
	C615.031677,693.911377 618.843933,695.863770 623.330811,698.094299 
M527.110901,670.454163 
	C524.172119,670.194275 521.236328,669.891357 518.293823,669.685425 
	C514.618042,669.428162 513.923401,672.205261 513.642090,674.832703 
	C513.227905,678.700256 519.657349,687.766846 524.426208,689.809448 
	C523.832703,688.172302 523.560059,686.956055 522.979980,685.910339 
	C521.454895,683.161255 519.700562,680.536743 518.234131,677.758850 
	C517.585754,676.530640 516.780701,674.088745 517.135132,673.856079 
	C518.530762,672.940002 520.358887,672.285095 522.026489,672.285095 
	C523.960327,672.285034 525.880554,673.150818 527.831665,673.502258 
	C530.088562,673.908813 532.372620,674.164490 534.644897,674.485657 
	C534.790161,673.773071 534.935486,673.060486 535.080750,672.347900 
	C532.692627,671.791992 530.304443,671.236145 527.110901,670.454163 
z"/>
<path fill="#FFFFFF" opacity="1.000000" stroke="none" 
	d="
M728.687378,278.675842 
	C746.453125,261.420532 764.841492,245.207916 781.208191,227.161743 
	C795.412659,211.499725 807.330322,193.763474 820.246521,176.934555 
	C820.714294,176.325180 821.053345,175.617050 822.536011,175.268753 
	C818.361328,236.075775 814.186707,296.882812 810.012451,357.683929 
	C785.623962,364.238892 761.567749,370.710785 737.507446,377.167236 
	C730.734680,378.984650 730.020508,379.932037 731.497803,386.904144 
	C738.621460,420.524414 745.784119,454.136566 753.029907,487.730652 
	C753.999817,492.227509 755.568909,496.592499 756.767517,501.043610 
	C757.485107,503.708282 757.316162,505.396149 753.766113,506.347900 
	C742.932617,509.252380 732.195007,512.566956 721.573242,516.173279 
	C718.701477,517.148315 716.373291,519.724304 714.214783,521.266052 
	C709.038147,512.616028 703.643616,502.358093 697.090698,492.902924 
	C681.960266,471.070862 662.422302,453.631622 640.600586,438.692230 
	C636.524719,435.901855 632.246216,433.333923 627.829163,431.128082 
	C607.703369,421.077606 587.493042,411.196503 567.317444,401.245728 
	C563.440735,399.333771 559.792969,392.175446 560.923401,388.187683 
	C561.190552,387.245178 562.579224,386.340485 563.646973,385.945251 
	C612.174194,367.980896 654.676025,339.780792 695.065002,308.140228 
	C706.685486,299.036774 717.336426,288.695831 728.687378,278.675842 
z"/>
<path fill="#DDA040" opacity="1.000000" stroke="none" 
	d="
M646.581360,707.101440 
	C649.661194,709.913574 652.694153,712.667725 655.173096,715.852966 
	C664.732849,728.136353 674.106262,740.564636 683.567444,752.924866 
	C691.391235,763.146057 697.976135,763.719299 706.926941,754.541626 
	C718.755371,742.413330 727.827759,728.471191 733.765259,712.200195 
	C729.838196,743.426758 720.418335,772.033203 691.985107,790.553650 
	C682.280090,796.875183 671.173096,797.864624 660.267944,800.100586 
	C640.981079,804.055237 623.558777,798.124390 606.759949,790.238647 
	C589.308228,782.046387 572.565979,772.356567 555.305908,763.737305 
	C542.227661,757.206238 529.283691,749.860901 515.450623,745.521606 
	C497.211548,739.800232 478.088257,737.120850 458.806793,740.566162 
	C449.510193,742.227295 440.276367,744.311523 431.098114,746.548584 
	C408.867523,751.967041 386.706909,754.925354 364.208069,747.680176 
	C345.935303,741.795959 331.520447,730.616638 319.772583,715.915894 
	C307.210785,700.196777 293.068634,686.219604 276.780304,674.448486 
	C273.447601,672.039917 269.590637,670.356873 265.975311,668.339478 
	C265.255920,669.244568 264.536530,670.149658 263.817108,671.054810 
	C265.420624,671.696289 267.024109,672.337769 268.627594,672.979309 
	C268.504791,673.343811 268.382019,673.708252 268.259247,674.072754 
	C258.628876,674.707336 248.974960,676.105957 239.373291,675.809998 
	C221.936066,675.272522 204.510803,673.959106 187.116760,672.529175 
	C173.032120,671.371216 158.872574,670.303772 144.973663,667.887817 
	C120.165016,663.575500 96.075325,656.518860 73.423279,645.370117 
	C80.043823,645.624084 86.457283,646.181091 92.863869,646.808472 
	C99.768616,647.484619 106.672531,648.854248 113.566696,648.792480 
	C123.805725,648.700745 134.041718,647.693604 144.267075,646.918701 
	C148.702347,646.582581 153.153519,646.092590 157.517822,645.256714 
	C167.905487,643.266968 178.319351,641.328918 188.583435,638.804077 
	C198.035400,636.479126 207.562958,633.987488 215.006516,627.011902 
	C240.128510,647.670044 267.457642,664.575378 298.214752,675.538086 
	C342.964630,691.488281 388.345825,694.538818 434.623566,682.567749 
	C457.202972,676.726990 478.198242,667.324036 498.640381,656.413330 
	C499.667023,655.865356 500.681793,655.293091 501.727295,654.783875 
	C501.992950,654.654480 502.355591,654.724304 502.982239,654.681458 
	C502.636108,657.189636 502.289581,659.628601 501.964111,662.070374 
	C498.122467,690.893311 514.250427,720.161926 540.503296,732.560913 
	C551.890808,737.939087 563.510254,742.440918 576.210388,742.828552 
	C604.483337,743.691711 626.570557,731.450317 644.135864,710.003845 
	C644.874207,709.102417 645.566284,708.163208 646.581360,707.101440 
z"/>
<path fill="#DEA140" opacity="1.000000" stroke="none" 
	d="
M767.961670,470.075745 
	C767.516113,467.816467 767.313232,465.475800 766.587341,463.310486 
	C759.299133,441.570221 751.923584,419.859192 744.578430,398.138000 
	C744.104797,396.737457 743.678894,395.320770 742.900635,392.873444 
	C784.045349,397.817810 824.560913,402.686523 865.089966,407.556915 
	C865.558533,406.006653 865.927551,405.387543 865.900696,404.786133 
	C865.331116,392.031311 864.715698,379.278534 864.113708,366.525177 
	C864.066650,365.527710 864.044800,364.528900 864.022156,363.530457 
	C863.667114,347.908264 863.397888,332.283569 862.938782,316.664459 
	C862.358093,296.909760 861.672363,277.157806 860.938904,257.408112 
	C860.366150,241.986267 859.645813,226.569901 859.008911,211.150360 
	C858.943542,209.567413 859.000061,207.979431 859.000061,205.264297 
	C864.267212,207.380386 868.460571,209.235840 872.768921,210.768188 
	C899.999695,220.453354 927.288025,229.977249 954.495117,239.728226 
	C984.354065,250.429581 1014.400330,260.674316 1043.887451,272.326355 
	C1068.128174,281.905212 1091.723999,293.133514 1115.484863,303.897583 
	C1121.486816,306.616608 1127.026978,310.355347 1132.855957,313.988403 
	C1117.342896,313.256683 1101.767700,311.835907 1086.160156,311.137421 
	C1056.570190,309.813171 1026.927002,309.470520 997.370300,307.666840 
	C965.558594,305.725525 933.866882,306.731903 902.138733,308.743958 
	C898.845154,308.952789 897.584290,310.103638 896.912292,313.303772 
	C890.076843,345.853424 882.982544,378.349030 876.257080,410.920959 
	C875.462952,414.767120 873.696472,416.084625 870.307129,416.897766 
	C852.037598,421.280914 833.829407,425.923004 815.536621,430.204742 
	C811.220825,431.214935 809.433838,432.889465 809.894714,437.580292 
	C810.886353,447.673126 811.337952,457.819061 811.633057,468.560730 
	C810.230652,469.845551 809.205688,470.512909 807.946167,471.332947 
	C805.897461,466.693817 804.061951,462.537537 801.712158,457.216705 
	C799.764832,463.479980 798.226257,468.428436 796.377502,474.374481 
	C794.140015,469.381958 792.312805,465.305023 789.998047,460.140045 
	C788.332092,465.721252 787.038635,470.054718 785.485352,475.258606 
	C782.126038,470.103241 779.211243,465.630096 776.216309,461.033966 
	C775.561340,461.725494 775.240479,461.914520 775.151367,462.181122 
	C773.730469,466.431335 772.339294,470.691406 770.655029,474.836731 
	C769.907471,473.844147 769.446106,472.964020 768.970215,471.767944 
	C768.617676,470.968506 768.279724,470.485046 767.968628,470.014160 
	C767.995361,470.026733 767.961670,470.075745 767.961670,470.075745 
z"/>
<path fill="#FED23C" opacity="1.000000" stroke="none" 
	d="
M214.828064,626.729248 
	C207.562958,633.987488 198.035400,636.479126 188.583435,638.804077 
	C178.319351,641.328918 167.905487,643.266968 157.517822,645.256714 
	C153.153519,646.092590 148.702347,646.582581 144.267075,646.918701 
	C134.041718,647.693604 123.805725,648.700745 113.566696,648.792480 
	C106.672531,648.854248 99.768616,647.484619 92.863869,646.808472 
	C86.457283,646.181091 80.043823,645.624084 73.177376,645.109619 
	C62.604710,639.177856 52.322147,633.427368 42.471088,627.014099 
	C39.461815,625.055054 37.588478,625.005859 34.484737,626.338745 
	C28.630026,628.853088 22.472069,630.661316 15.002674,633.263855 
	C16.818800,625.898682 18.100300,620.156067 19.676483,614.495483 
	C20.783934,610.518250 20.551092,608.000122 15.578465,607.202393 
	C12.660944,606.734436 9.978787,604.799194 7.190747,603.523926 
	C8.970973,601.240601 10.623345,598.840698 12.568356,596.707520 
	C14.411276,594.686462 16.561039,592.945129 18.991741,590.695862 
	C14.367658,587.551147 10.330091,584.805298 5.485729,581.510742 
	C12.052440,577.633118 17.747288,574.270264 23.773245,570.711914 
	C21.110022,564.570923 18.371220,558.255676 15.632419,551.940430 
	C15.945297,551.440613 16.258177,550.940735 16.571054,550.440918 
	C26.573040,553.694885 36.575024,556.948853 47.433548,560.481445 
	C46.040813,558.679932 45.115398,557.482910 43.818729,555.805603 
	C78.421867,533.423279 114.960602,516.606628 157.120377,512.789246 
	C156.610382,516.801636 156.388947,520.260254 155.702026,523.623779 
	C153.703156,533.411133 155.132797,542.782166 158.468079,552.054016 
	C166.697418,574.930786 180.373810,594.167725 197.701309,610.949280 
	C203.197998,616.272766 208.991791,621.289551 214.828064,626.729248 
M43.173435,567.685669 
	C47.290962,568.646362 51.408493,569.606995 55.526020,570.567688 
	C55.716949,569.809204 55.907879,569.050781 56.098808,568.292297 
	C53.375782,567.503723 50.674110,566.629883 47.925922,565.941833 
	C37.666985,563.373596 37.086079,563.971497 39.202026,574.078369 
	C33.529034,576.863220 32.409321,582.091492 33.269703,587.397705 
	C33.992680,591.856506 34.839493,597.150452 41.876934,598.067871 
	C42.785526,597.419250 44.362244,596.887695 44.499687,596.103882 
	C45.923668,587.982971 47.930496,579.773132 42.632904,572.128601 
	C41.915726,571.093750 41.721737,569.696228 41.883785,568.050537 
	C42.063244,567.886780 42.242706,567.723083 43.173435,567.685669 
z"/>
<path fill="#8C3F1C" opacity="1.000000" stroke="none" 
	d="
M770.941284,474.949219 
	C772.339294,470.691406 773.730469,466.431335 775.151367,462.181122 
	C775.240479,461.914520 775.561340,461.725494 776.216309,461.033966 
	C779.211243,465.630096 782.126038,470.103241 785.485352,475.258606 
	C787.038635,470.054718 788.332092,465.721252 789.998047,460.140045 
	C792.312805,465.305023 794.140015,469.381958 796.377502,474.374481 
	C798.226257,468.428436 799.764832,463.479980 801.712158,457.216705 
	C804.061951,462.537537 805.897461,466.693817 807.946167,471.332947 
	C809.205688,470.512909 810.230652,469.845551 811.563110,469.002014 
	C812.897156,480.045502 814.044067,491.255890 814.916138,502.487579 
	C815.776611,513.568542 816.244507,524.680176 817.122131,535.759583 
	C817.452026,539.923950 816.127502,541.480652 811.833496,542.154175 
	C798.286743,544.279114 784.829834,546.977173 770.765930,549.558411 
	C773.080078,558.565613 775.276245,567.199219 777.518860,575.820740 
	C780.442200,587.058960 783.278564,598.322388 786.418518,609.500183 
	C787.426270,613.087280 786.760559,614.520142 782.950195,615.294495 
	C768.011963,618.329834 753.139465,621.688477 738.236206,624.897461 
	C737.788757,624.993835 737.270813,624.762756 736.413940,624.624268 
	C734.971069,617.259277 733.484863,609.817444 732.066772,602.362671 
	C731.509094,599.430969 732.793213,598.220032 735.811462,597.921997 
	C740.393799,597.469482 744.927002,596.519836 750.399353,595.632507 
	C740.757812,571.490356 731.321655,547.862549 721.693481,523.753845 
	C727.184631,521.849670 732.295349,520.077454 737.919861,518.536987 
	C743.962036,521.183716 749.490479,523.598633 755.212830,526.291138 
	C756.288086,526.709045 757.169373,526.849365 758.022095,526.996582 
	C757.993530,527.003479 757.991028,526.944763 758.125000,527.284424 
	C760.851013,528.409851 763.443054,529.195679 766.014404,529.990417 
	C765.993713,529.999329 766.003601,529.955261 766.121216,530.293579 
	C772.842102,533.083740 779.445312,535.535583 786.021790,537.996704 
	C785.994995,538.005981 785.987793,537.949707 786.165771,538.260132 
	C787.045471,538.711060 787.747253,538.851624 788.785767,538.972412 
	C790.614868,539.425659 792.107239,539.898560 794.250366,540.577698 
	C789.992493,528.916565 785.896118,517.930603 781.971863,506.883514 
	C778.202209,496.271698 774.610962,485.596558 770.941284,474.949219 
z"/>
<path fill="#EF5633" opacity="1.000000" stroke="none" 
	d="
M500.391357,553.217651 
	C510.384308,548.981201 520.208557,547.741577 529.483948,553.460388 
	C541.198303,560.682983 544.268860,574.366333 541.814819,586.782349 
	C541.588013,587.929810 540.447632,589.034424 539.485291,589.878235 
	C524.712280,602.830383 513.589966,618.334534 506.485443,636.692078 
	C506.088318,637.718201 505.383698,639.258179 504.603302,639.406433 
	C495.599243,641.116699 486.660400,645.207581 477.373627,640.618958 
	C469.175751,636.568298 464.063477,629.978149 462.891937,621.012878 
	C462.172333,615.505737 461.876434,609.585815 463.102478,604.244263 
	C468.168457,582.173706 480.103302,564.791260 500.391357,553.217651 
z"/>
<path fill="#BF5A28" opacity="1.000000" stroke="none" 
	d="
M578.074097,413.926575 
	C579.629395,414.413513 581.281616,414.704346 582.725159,415.417511 
	C598.095642,423.011353 613.484558,430.572083 628.727783,438.415192 
	C631.204834,439.689697 633.512817,441.966919 635.025330,444.337921 
	C650.572937,468.710327 663.102844,494.642212 671.767334,522.163452 
	C676.174622,536.162537 678.325195,550.936768 680.617920,565.498840 
	C681.334534,570.050781 679.181458,575.054626 678.342041,579.851624 
	C677.588745,580.060547 676.835388,580.269470 676.082092,580.478455 
	C673.036987,575.926208 669.478882,571.632446 667.033203,566.778259 
	C654.753052,542.404541 643.223145,517.643372 630.551697,493.478668 
	C615.850037,465.442352 599.545593,438.344208 578.121643,414.310913 
	C578.024109,413.975555 578.074097,413.926575 578.074097,413.926575 
z"/>
<path fill="#EF5633" opacity="1.000000" stroke="none" 
	d="
M213.856689,537.321472 
	C217.656799,549.790161 217.581192,562.125122 214.705215,574.155212 
	C213.333115,579.894653 209.983810,585.591980 206.206192,590.230164 
	C199.653870,598.275085 187.538040,597.172546 181.706497,588.655518 
	C171.529434,573.791748 163.290848,558.154907 158.655441,540.446838 
	C156.353104,531.651489 163.533325,516.404968 171.635010,511.829681 
	C180.661179,506.732300 192.443481,508.054565 200.795792,515.433105 
	C207.393448,521.261475 211.161743,528.725464 213.856689,537.321472 
z"/>
<path fill="#DB9F40" opacity="1.000000" stroke="none" 
	d="
M703.835205,829.966675 
	C702.548828,844.106934 701.262634,857.778748 699.976501,871.450562 
	C699.059509,871.496033 698.142517,871.541504 697.225525,871.586975 
	C695.050964,859.147949 692.876465,846.708923 690.701904,834.269897 
	C690.144409,834.338074 689.586975,834.406250 689.029480,834.474365 
	C688.937683,835.506409 688.740417,836.541443 688.770142,837.569946 
	C689.094482,848.760437 690.848267,859.682068 694.448364,870.333618 
	C695.185608,872.514954 694.555115,875.158508 694.555115,877.588928 
	C693.931824,877.761902 693.308472,877.934814 692.685181,878.107727 
	C691.416138,875.768738 689.725342,873.560364 688.953613,871.067383 
	C686.155090,862.026794 683.680359,852.886292 681.043762,843.794922 
	C680.563965,842.140625 679.897705,840.540405 678.573853,839.151184 
	C676.917908,852.817322 684.619385,864.173523 686.923706,877.411194 
	C684.228271,874.533752 681.040588,871.977539 678.918213,868.726074 
	C666.242249,849.306030 659.678467,827.226990 651.971130,805.655029 
	C651.869324,805.370056 651.995544,805.003723 652.041382,804.241089 
	C668.245789,801.202271 685.650269,801.370605 698.938965,788.845886 
	C699.433472,788.988708 699.927979,789.131531 700.422485,789.274414 
	C701.560120,802.682373 702.697693,816.090332 703.835205,829.966675 
z"/>
<path fill="#DCA03F" opacity="1.000000" stroke="none" 
	d="
M273.540436,290.191071 
	C273.808716,288.928955 274.252350,287.491272 275.147278,286.436401 
	C287.161163,272.275360 299.464020,258.353058 311.238037,243.996628 
	C323.954651,228.490875 336.195709,212.595016 348.634918,196.861984 
	C351.988617,192.620255 355.308624,188.351898 359.012878,184.144806 
	C350.959442,201.312927 343.206909,218.806122 333.915649,235.439774 
	C325.596344,250.333389 315.589020,264.284760 306.309601,278.640961 
	C304.148712,281.984039 301.327057,283.792908 297.122528,284.532990 
	C289.300415,285.909851 281.648407,288.252716 273.540436,290.191071 
z"/>
<path fill="#C05B28" opacity="1.000000" stroke="none" 
	d="
M755.018860,526.013489 
	C749.490479,523.598633 743.962036,521.183716 738.281921,518.468994 
	C745.401428,515.800964 752.646240,513.346619 759.955688,511.103241 
	C763.303772,510.075653 764.410889,508.477020 763.464417,504.854218 
	C761.198914,496.182037 759.351929,487.400513 757.312805,478.290710 
	C759.088989,473.445160 760.888428,468.971954 762.946777,463.855255 
	C764.546082,466.012268 765.944580,467.898468 767.652344,469.930206 
	C767.961670,470.075745 767.995361,470.026733 767.983826,470.323730 
	C768.309753,471.108490 768.647278,471.596222 768.984802,472.083923 
	C769.446106,472.964020 769.907471,473.844147 770.655029,474.836731 
	C774.610962,485.596558 778.202209,496.271698 781.971863,506.883514 
	C785.896118,517.930603 789.992493,528.916565 794.250366,540.577698 
	C792.107239,539.898560 790.614868,539.425659 788.525696,538.735962 
	C787.281860,538.329407 786.634827,538.139587 785.987793,537.949707 
	C785.987793,537.949707 785.994995,538.005981 785.824280,537.711304 
	C779.103577,534.929443 772.553589,532.442383 766.003601,529.955261 
	C766.003601,529.955261 765.993713,529.999329 765.811279,529.700317 
	C763.082886,528.582458 760.536926,527.763611 757.991028,526.944763 
	C757.991028,526.944763 757.993530,527.003479 757.812256,526.732056 
	C756.760254,526.311584 755.889587,526.162537 755.018860,526.013489 
z"/>
<path fill="#DCA040" opacity="1.000000" stroke="none" 
	d="
M554.956604,390.637695 
	C553.886841,392.507324 552.845398,393.993835 551.769104,395.454620 
	C548.969910,399.253693 545.342651,402.155640 540.517456,401.558777 
	C535.021667,400.878906 529.549744,399.100433 527.848572,392.850006 
	C526.457214,387.737823 525.378479,382.481476 524.901062,377.221893 
	C524.784485,375.937683 527.363831,373.486176 529.049194,373.106812 
	C542.592346,370.058167 556.387573,368.009949 569.776917,364.427246 
	C587.224121,359.758728 604.364563,353.946503 621.652527,348.677094 
	C623.311584,348.171417 625.079712,348.023621 626.955200,348.035278 
	C615.975952,354.569946 605.226257,361.658997 593.607971,366.775604 
	C577.398926,373.914001 560.541260,379.579590 543.958435,385.868317 
	C543.468140,386.054291 542.947449,386.159943 542.660339,387.455353 
	C546.068176,386.916046 549.475952,386.376740 553.540771,385.733429 
	C554.020813,387.249176 554.494934,388.746002 554.956604,390.637695 
z"/>
<path fill="#BD5928" opacity="1.000000" stroke="none" 
	d="
M718.126831,600.980286 
	C716.220459,606.633179 714.366150,611.866882 712.511780,617.100586 
	C711.728271,617.101624 710.944702,617.102661 710.161133,617.103699 
	C709.445007,615.052002 708.257324,613.037292 708.092834,610.942261 
	C707.300049,600.844666 706.768738,590.726257 706.171082,580.613647 
	C704.890015,558.937561 699.721252,537.973389 694.582703,516.999878 
	C692.615173,508.969208 690.756836,500.911804 688.848755,492.866577 
	C689.290466,492.641937 689.732178,492.417297 690.173889,492.192627 
	C694.656128,499.602264 699.325317,506.906281 703.580505,514.444153 
	C711.700745,528.828857 713.925476,545.224304 718.984497,560.657166 
	C723.385864,574.083618 719.829590,587.289429 718.126831,600.980286 
z"/>
<path fill="#D59B3F" opacity="1.000000" stroke="none" 
	d="
M448.672516,744.895081 
	C453.844574,752.646545 457.850769,760.683716 460.384155,770.494019 
	C450.511078,766.819885 445.933807,758.416992 438.982422,752.586914 
	C438.134521,755.796936 438.052795,755.881592 446.932037,764.450195 
	C450.435791,767.831299 454.394196,770.741211 458.145569,773.865662 
	C457.859802,774.432678 457.574036,774.999695 457.288239,775.566711 
	C454.891357,774.478699 452.074951,773.870422 450.177368,772.211304 
	C444.805573,767.514771 439.829254,762.367615 434.650970,757.446655 
	C433.529968,756.381348 432.215607,755.519531 430.990326,754.563965 
	C430.554199,754.881409 430.118103,755.198853 429.681976,755.516296 
	C430.708984,757.559753 431.735962,759.603210 432.762970,761.646606 
	C432.385956,761.995850 432.008942,762.345093 431.631927,762.694275 
	C428.608643,759.394531 425.585388,756.094788 421.684540,751.837219 
	C431.195679,749.341003 439.732788,747.100403 448.672516,744.895081 
z"/>
<path fill="#D29B3D" opacity="1.000000" stroke="none" 
	d="
M429.235107,679.429077 
	C433.406555,677.514832 437.935852,675.681335 442.522339,674.004395 
	C459.984283,667.619812 476.492065,659.401917 491.621704,648.536316 
	C492.511139,647.897522 493.093414,646.831055 493.866699,645.641724 
	C497.437927,644.446533 500.961090,643.573242 504.701660,642.646118 
	C504.838043,648.002808 503.561401,651.866882 497.906128,654.668396 
	C480.051880,663.513306 462.024963,671.822815 442.778748,677.164062 
	C438.498260,678.352051 434.011169,678.795471 429.235107,679.429077 
z"/>
<path fill="#F6F6F6" opacity="1.000000" stroke="none" 
	d="
M721.911621,540.108643 
	C728.458740,556.859131 734.887146,573.240173 741.573120,590.277527 
	C738.623901,590.653381 736.251465,590.955688 733.633972,591.289246 
	C728.385498,571.476562 723.191772,551.870422 717.997986,532.264282 
	C718.096924,532.152039 718.195862,532.039795 718.294861,531.927551 
	C719.460876,534.531372 720.626953,537.135193 721.911621,540.108643 
z"/>
<path fill="#8A732D" opacity="1.000000" stroke="none" 
	d="
M880.892456,144.909760 
	C894.915222,143.139633 908.489807,141.367645 922.064453,139.595642 
	C922.112183,139.987411 922.159912,140.379196 922.207581,140.770966 
	C900.862854,143.582489 879.518127,146.394012 858.173401,149.205521 
	C858.123718,148.867126 858.073975,148.528717 858.024231,148.190323 
	C865.497559,147.096176 872.970947,146.002014 880.892456,144.909760 
z"/>
<path fill="#FED23C" opacity="1.000000" stroke="none" 
	d="
M160.005890,518.007935 
	C159.906052,518.575012 159.639511,518.990601 159.372971,519.406189 
	C159.320038,518.955505 159.267090,518.504822 159.352966,517.811890 
	C159.491760,517.569702 159.839203,517.856445 160.005890,518.007935 
z"/>
<path fill="#DCA040" opacity="1.000000" stroke="none" 
	d="
M629.372864,347.162262 
	C629.499695,346.799133 629.926697,346.397217 630.671387,345.990356 
	C630.550415,346.364746 630.111694,346.744110 629.372864,347.162262 
z"/>
<path fill="#DCA03F" opacity="1.000000" stroke="none" 
	d="
M271.309662,291.019775 
	C271.505341,290.682465 272.010986,290.357880 272.829773,290.100159 
	C272.635162,290.455536 272.127411,290.744049 271.309662,291.019775 
z"/>
<path fill="#FED23C" opacity="1.000000" stroke="none" 
	d="
M554.996948,578.039062 
	C554.859680,578.408936 554.486328,578.579407 554.112976,578.749878 
	C554.045105,578.499207 553.977173,578.248474 554.072632,577.755676 
	C554.410950,577.622253 554.585938,577.731018 554.996948,578.039062 
z"/>
<path fill="#BF5A28" opacity="1.000000" stroke="none" 
	d="
M577.998413,413.999390 
	C577.760254,413.857574 577.547852,413.691925 577.335388,413.526306 
	C577.573303,413.516998 577.811279,413.507690 578.061646,413.712463 
	C578.074097,413.926575 578.024109,413.975555 577.998413,413.999390 
z"/>
<path fill="#DEA140" opacity="1.000000" stroke="none" 
	d="
M1133.700439,314.545593 
	C1133.868652,314.361328 1134.239258,314.379395 1134.814453,314.599335 
	C1134.646973,314.783447 1134.275024,314.765686 1133.700439,314.545593 
z"/>
<path fill="#262221" opacity="1.000000" stroke="none" 
	d="
M487.536469,515.583313 
	C464.790680,532.147766 436.113861,514.041016 434.086212,490.347107 
	C433.837067,487.435699 434.741760,484.442993 434.778137,481.483856 
	C434.803802,479.396759 434.264893,477.302704 433.787201,473.820740 
	C450.090088,465.013763 467.616058,455.546051 485.142029,446.078369 
	C485.618988,446.868011 486.095917,447.657684 486.572845,448.447327 
	C483.875763,450.162964 481.178711,451.878601 477.929169,453.945648 
	C493.592560,459.584015 501.038422,471.215485 501.885193,486.950836 
	C502.520905,498.764832 498.413635,508.815399 487.536469,515.583313 
M469.328156,489.048279 
	C478.245972,484.675873 476.752075,470.571655 469.579010,464.099243 
	C466.740631,461.538116 463.750061,460.536835 460.215973,463.138397 
	C458.228271,464.601654 455.893372,465.596619 453.703430,466.781342 
	C446.931366,470.444855 445.751221,472.899597 447.047028,480.679230 
	C448.291260,488.149261 454.965179,492.732605 462.398865,491.113220 
	C464.498047,490.655945 466.523956,489.862518 469.328156,489.048279 
z"/>
<path fill="#262221" opacity="1.000000" stroke="none" 
	d="
M237.309937,494.115723 
	C213.590683,490.967285 207.594040,465.462738 214.426422,449.330078 
	C219.466278,437.429962 228.908722,431.585968 241.017319,429.119354 
	C242.280701,428.861969 243.541672,428.592743 244.894150,428.310150 
	C244.085266,426.352112 243.393631,424.677948 242.702011,423.003754 
	C243.114044,422.730743 243.526093,422.457764 243.938126,422.184753 
	C244.957428,423.115845 246.096832,423.946014 246.977264,424.993744 
	C254.904388,434.427094 262.984955,443.744202 270.536102,453.471466 
	C272.340881,455.796417 273.122345,459.548706 273.033630,462.605621 
	C272.537750,479.694824 255.434509,497.067596 237.309937,494.115723 
M255.322495,470.283081 
	C259.947205,468.079590 262.206818,464.088440 264.428345,459.634918 
	C267.669098,453.138245 264.103699,448.869720 259.995972,445.525513 
	C257.872314,443.796661 253.608353,443.848114 250.510422,444.342499 
	C244.190765,445.351013 238.004761,455.169861 239.169250,461.367218 
	C240.492996,468.412170 246.277588,471.909607 255.322495,470.283081 
z"/>
<path fill="#332823" opacity="1.000000" stroke="none" 
	d="
M383.854065,654.834473 
	C378.219543,664.744934 371.192596,672.844849 361.326782,678.103455 
	C348.656158,684.856995 338.417725,683.917480 327.762787,674.417603 
	C309.170746,657.841125 299.761993,636.556396 295.932709,612.221252 
	C292.886932,592.865295 294.906830,573.729370 297.033691,553.735474 
	C295.461456,554.895569 294.525116,555.712708 293.470215,556.325806 
	C292.589478,556.837769 291.569855,557.110779 290.611786,557.489624 
	C290.313049,557.100830 290.014343,556.712036 289.715607,556.323303 
	C293.185760,552.915466 296.457794,549.271484 300.173187,546.156189 
	C305.529846,541.664612 311.201904,537.548523 316.751007,533.287415 
	C328.768036,524.059692 339.313049,523.487244 351.548584,532.424072 
	C381.383850,554.215637 397.282898,582.968445 393.885590,620.698364 
	C392.820801,632.523621 389.524109,643.882446 383.854065,654.834473 
M310.566986,594.207703 
	C310.441864,594.511414 310.316742,594.815186 309.782074,595.674377 
	C300.790527,607.460449 297.997955,619.624634 304.423737,634.060913 
	C310.865234,648.532593 317.998322,662.134033 330.034271,672.785156 
	C338.705963,680.459106 348.163361,681.279419 358.229126,676.449524 
	C362.076843,674.603271 365.939148,672.299316 368.993347,669.368652 
	C385.854553,653.189636 391.250275,632.609924 391.132629,609.092896 
	C390.377075,602.500793 390.375977,595.703308 388.652405,589.374817 
	C386.950531,583.126038 384.918365,575.797241 380.472443,571.759949 
	C374.837616,566.643127 366.700134,564.190613 359.467957,560.981018 
	C357.321136,560.028259 354.398926,559.678040 352.154144,560.271118 
	C333.883759,565.098022 321.303375,577.081604 311.994904,593.002441 
	C311.994904,593.002441 311.983978,592.975037 311.464386,593.100220 
	C311.329498,593.417725 311.194641,593.735168 310.999695,594.002441 
	C310.999695,594.002441 311.057312,594.057495 310.566986,594.207703 
M297.084930,596.132446 
	C297.391693,598.260681 297.688904,600.390381 298.008057,602.516785 
	C298.293213,604.416687 298.602600,606.313049 299.117676,609.585754 
	C306.914642,594.073792 314.960968,580.626526 327.174133,570.454590 
	C342.509491,557.682190 356.355103,551.144409 375.623444,564.724121 
	C376.407379,565.276611 377.526337,565.353699 378.489197,565.652222 
	C378.725250,565.301208 378.961273,564.950195 379.197296,564.599182 
	C369.091278,552.169434 358.890656,539.878296 344.528351,531.736511 
	C337.684998,527.857178 330.991699,528.255066 324.726776,532.281250 
	C317.059448,537.208679 309.768799,542.728943 302.409119,548.120972 
	C301.341156,548.903381 300.194336,550.351685 300.099457,551.570862 
	C298.968597,566.104553 298.030182,580.653259 297.084930,596.132446 
z"/>
<path fill="#2F2921" opacity="1.000000" stroke="none" 
	d="
M328.934692,505.320557 
	C328.817169,500.350372 332.939728,501.089600 335.192444,501.116180 
	C337.847198,501.147491 342.762848,503.142670 342.720306,504.111816 
	C342.551697,507.954681 338.943085,510.112457 335.473846,509.927338 
	C333.273926,509.809937 331.209167,507.159851 328.934692,505.320557 
z"/>
<path fill="#393123" opacity="1.000000" stroke="none" 
	d="
M622.993530,697.955200 
	C618.843933,695.863770 615.031677,693.911377 611.248718,691.974060 
	C614.217041,686.270203 617.002136,680.918457 620.124817,674.918091 
	C612.861572,673.510498 606.608032,671.968140 600.260803,671.197754 
	C596.695679,670.765015 595.780762,669.329224 595.909546,666.104614 
	C596.084778,661.715881 595.953186,657.314880 595.953186,652.919189 
	C595.385315,652.616089 594.817383,652.313049 594.249512,652.009949 
	C588.267334,654.969055 582.285217,657.928101 575.675537,661.197571 
	C574.850708,653.454773 574.051819,645.955627 573.220032,638.147095 
	C560.486816,641.385315 554.414978,651.847778 545.551758,659.882080 
	C545.623596,658.828430 545.269287,657.343079 545.832458,656.787109 
	C552.313660,650.388306 558.907715,644.102234 565.551941,637.871826 
	C566.354492,637.119324 567.603821,636.802551 568.688843,636.398865 
	C574.826538,634.115173 575.523987,634.448975 576.335999,640.849609 
	C577.000122,646.084412 577.352295,651.358643 577.820740,656.379272 
	C583.112366,654.203247 588.067688,652.061218 593.104004,650.130249 
	C596.610413,648.786011 598.592224,650.305237 598.696411,653.955994 
	C598.828796,658.594421 598.728455,663.239563 598.728455,668.087708 
	C605.242004,669.300049 611.244568,670.485291 617.273560,671.516663 
	C621.596863,672.256287 622.815308,674.117371 620.661499,678.269226 
	C618.540039,682.358704 616.949036,686.723328 615.098511,691.029663 
	C620.240295,694.712463 627.549622,694.446899 630.935181,700.277954 
	C623.755066,705.538452 616.864929,710.586365 609.975159,715.634155 
	C608.884583,712.961914 608.884277,712.961487 616.456665,707.427185 
	C619.656616,705.088501 622.858398,702.752258 626.568665,700.042969 
	C625.170532,699.201477 624.250671,698.647888 622.993530,697.955200 
z"/>
<path fill="#DB9F3F" opacity="1.000000" stroke="none" 
	d="
M567.099854,692.454041 
	C562.498413,699.807312 559.083923,699.894348 554.763977,692.508118 
	C552.293152,688.283569 550.258911,683.803589 548.462158,679.110779 
	C556.507935,681.284302 562.442200,686.019226 567.099854,692.454041 
z"/>
<path fill="#393123" opacity="1.000000" stroke="none" 
	d="
M527.513611,670.567200 
	C530.304443,671.236145 532.692627,671.791992 535.080750,672.347900 
	C534.935486,673.060486 534.790161,673.773071 534.644897,674.485657 
	C532.372620,674.164490 530.088562,673.908813 527.831665,673.502258 
	C525.880554,673.150818 523.960327,672.285034 522.026489,672.285095 
	C520.358887,672.285095 518.530762,672.940002 517.135132,673.856079 
	C516.780701,674.088745 517.585754,676.530640 518.234131,677.758850 
	C519.700562,680.536743 521.454895,683.161255 522.979980,685.910339 
	C523.560059,686.956055 523.832703,688.172302 524.426208,689.809448 
	C519.657349,687.766846 513.227905,678.700256 513.642090,674.832703 
	C513.923401,672.205261 514.618042,669.428162 518.293823,669.685425 
	C521.236328,669.891357 524.172119,670.194275 527.513611,670.567200 
z"/>
<path fill="#372F23" opacity="1.000000" stroke="none" 
	d="
M567.440552,692.489441 
	C562.442200,686.019226 556.507935,681.284302 548.531982,678.722412 
	C545.799255,677.453247 543.430664,676.244568 541.062134,675.035889 
	C548.261414,674.788574 554.732849,676.555298 560.132690,681.094849 
	C562.894287,683.416443 565.410522,686.079102 567.727234,688.847351 
	C568.338013,689.577148 567.794678,691.272766 567.440552,692.489441 
z"/>
<path fill="#FFD33C" opacity="1.000000" stroke="none" 
	d="
M768.970215,471.767944 
	C768.647278,471.596222 768.309753,471.108490 767.957031,470.311157 
	C768.279724,470.485046 768.617676,470.968506 768.970215,471.767944 
z"/>
<path fill="#DCA03F" opacity="1.000000" stroke="none" 
	d="
M41.074387,597.942871 
	C34.839493,597.150452 33.992680,591.856506 33.269703,587.397705 
	C32.409321,582.091492 33.529034,576.863220 39.746490,574.333740 
	C43.246593,580.218262 44.321774,585.914673 41.651302,592.068909 
	C40.905838,593.786804 41.237076,595.972046 41.074387,597.942871 
z"/>
<path fill="#383023" opacity="1.000000" stroke="none" 
	d="
M41.475658,598.005371 
	C41.237076,595.972046 40.905838,593.786804 41.651302,592.068909 
	C44.321774,585.914673 43.246593,580.218262 40.088936,574.278748 
	C37.086079,563.971497 37.666985,563.373596 47.925922,565.941833 
	C50.674110,566.629883 53.375782,567.503723 56.098808,568.292297 
	C55.907879,569.050781 55.716949,569.809204 55.526020,570.567688 
	C51.408493,569.606995 47.290962,568.646362 42.590019,567.470825 
	C41.766239,567.659607 41.525875,568.063110 41.285500,568.466675 
	C41.721737,569.696228 41.915726,571.093750 42.632904,572.128601 
	C47.930496,579.773132 45.923668,587.982971 44.499687,596.103882 
	C44.362244,596.887695 42.785526,597.419250 41.475658,598.005371 
z"/>
<path fill="#462B20" opacity="1.000000" stroke="none" 
	d="
M766.121216,530.293579 
	C772.553589,532.442383 779.103577,534.929443 785.851074,537.702026 
	C779.445312,535.535583 772.842102,533.083740 766.121216,530.293579 
z"/>
<path fill="#462B20" opacity="1.000000" stroke="none" 
	d="
M758.125000,527.284424 
	C760.536926,527.763611 763.082886,528.582458 765.831970,529.691406 
	C763.443054,529.195679 760.851013,528.409851 758.125000,527.284424 
z"/>
<path fill="#462B20" opacity="1.000000" stroke="none" 
	d="
M755.212830,526.291138 
	C755.889587,526.162537 756.760254,526.311584 757.840820,526.725098 
	C757.169373,526.849365 756.288086,526.709045 755.212830,526.291138 
z"/>
<path fill="#462B20" opacity="1.000000" stroke="none" 
	d="
M786.165771,538.260132 
	C786.634827,538.139587 787.281860,538.329407 788.188965,538.755737 
	C787.747253,538.851624 787.045471,538.711060 786.165771,538.260132 
z"/>
<path fill="#FDFDFD" opacity="1.000000" stroke="none" 
	d="
M468.955811,489.135773 
	C466.523956,489.862518 464.498047,490.655945 462.398865,491.113220 
	C454.965179,492.732605 448.291260,488.149261 447.047028,480.679230 
	C445.751221,472.899597 446.931366,470.444855 453.703430,466.781342 
	C455.893372,465.596619 458.228271,464.601654 460.215973,463.138397 
	C463.750061,460.536835 466.740631,461.538116 469.579010,464.099243 
	C476.752075,470.571655 478.245972,484.675873 468.955811,489.135773 
z"/>
<path fill="#FCFCFC" opacity="1.000000" stroke="none" 
	d="
M254.984894,470.504272 
	C246.277588,471.909607 240.492996,468.412170 239.169250,461.367218 
	C238.004761,455.169861 244.190765,445.351013 250.510422,444.342499 
	C253.608353,443.848114 257.872314,443.796661 259.995972,445.525513 
	C264.103699,448.869720 267.669098,453.138245 264.428345,459.634918 
	C262.206818,464.088440 259.947205,468.079590 254.984894,470.504272 
z"/>
<path fill="#E77578" opacity="1.000000" stroke="none" 
	d="
M391.022156,610.010376 
	C391.250275,632.609924 385.854553,653.189636 368.993347,669.368652 
	C365.939148,672.299316 362.076843,674.603271 358.229126,676.449524 
	C348.163361,681.279419 338.705963,680.459106 330.034271,672.785156 
	C317.998322,662.134033 310.865234,648.532593 304.423737,634.060913 
	C297.997955,619.624634 300.790527,607.460449 310.198334,595.280396 
	C310.893005,594.679993 311.040588,594.403687 311.057312,594.057495 
	C311.057312,594.057495 310.999695,594.002441 311.272278,593.935425 
	C311.691223,593.570557 311.837585,593.272827 311.983948,592.975037 
	C311.983978,592.975037 311.994904,593.002441 312.346619,593.009033 
	C315.703583,591.274414 318.758453,589.612854 321.705536,587.778198 
	C334.631012,579.731750 359.233917,578.652527 372.078735,589.804871 
	C379.013336,595.825806 384.746796,603.230164 391.022156,610.010376 
z"/>
<path fill="#7D1C1C" opacity="1.000000" stroke="none" 
	d="
M297.063141,595.665222 
	C298.030182,580.653259 298.968597,566.104553 300.099457,551.570862 
	C300.194336,550.351685 301.341156,548.903381 302.409119,548.120972 
	C309.768799,542.728943 317.059448,537.208679 324.726776,532.281250 
	C330.991699,528.255066 337.684998,527.857178 344.528351,531.736511 
	C358.890656,539.878296 369.091278,552.169434 379.197296,564.599182 
	C378.961273,564.950195 378.725250,565.301208 378.489197,565.652222 
	C377.526337,565.353699 376.407379,565.276611 375.623444,564.724121 
	C356.355103,551.144409 342.509491,557.682190 327.174133,570.454590 
	C314.960968,580.626526 306.914642,594.073792 299.117676,609.585754 
	C298.602600,606.313049 298.293213,604.416687 298.008057,602.516785 
	C297.688904,600.390381 297.391693,598.260681 297.063141,595.665222 
z"/>
<path fill="#AC3F47" opacity="1.000000" stroke="none" 
	d="
M391.077393,609.551636 
	C384.746796,603.230164 379.013336,595.825806 372.078735,589.804871 
	C359.233917,578.652527 334.631012,579.731750 321.705536,587.778198 
	C318.758453,589.612854 315.703583,591.274414 312.335144,592.997925 
	C321.303375,577.081604 333.883759,565.098022 352.154144,560.271118 
	C354.398926,559.678040 357.321136,560.028259 359.467957,560.981018 
	C366.700134,564.190613 374.837616,566.643127 380.472443,571.759949 
	C384.918365,575.797241 386.950531,583.126038 388.652405,589.374817 
	C390.375977,595.703308 390.377075,602.500793 391.077393,609.551636 
z"/>
<path fill="#AC3F47" opacity="1.000000" stroke="none" 
	d="
M311.724182,593.037598 
	C311.837585,593.272827 311.691223,593.570557 311.302307,593.960510 
	C311.194641,593.735168 311.329498,593.417725 311.724182,593.037598 
z"/>
<path fill="#AC3F47" opacity="1.000000" stroke="none" 
	d="
M310.812134,594.132568 
	C311.040588,594.403687 310.893005,594.679993 310.403107,595.002625 
	C310.316742,594.815186 310.441864,594.511414 310.812134,594.132568 
z"/>
<path fill="#FED23C" opacity="1.000000" stroke="none" 
	d="
M41.584648,568.258606 
	C41.525875,568.063110 41.766239,567.659607 42.214386,567.407715 
	C42.242706,567.723083 42.063244,567.886780 41.584648,568.258606 
z"/>
</svg>